<svg xmlns="http://www.w3.org/2000/svg" xmlns:xlink="http://www.w3.org/1999/xlink" viewBox="0 0 55.53 54.44"><defs><style>.cls-1{fill:none;}.cls-2{fill:#fff;}.cls-3{fill:#3c3c3b;}.cls-4{fill:#046289;}.cls-5{clip-path:url(#clip-path);}.cls-6{fill:url(#linear-gradient);}.cls-7{clip-path:url(#clip-path-2);}.cls-8{fill:url(#linear-gradient-2);}</style><clipPath id="clip-path" transform="translate(0.84)"><path class="cls-1" d="M37.55,2.66A49.06,49.06,0,0,1,43,1.94C46.47,1.81,48.6,4,48.6,7.52A21.08,21.08,0,0,1,45.91,17,67.07,67.07,0,0,1,34.47,32.89,76.34,76.34,0,0,1,17,47.13a28.64,28.64,0,0,1-10.4,4c-2.51.33-4.85,0-6.59-2.35a4.86,4.86,0,0,0,4.12,4.5,17.33,17.33,0,0,0,4.55-.11,30.4,30.4,0,0,0,10-4,85.29,85.29,0,0,0,22.2-19A63.58,63.58,0,0,0,51.12,14.52a20.39,20.39,0,0,0,2.14-8.94A5.46,5.46,0,0,0,47.66,0h-.41c-3.67,0-6.91,1.41-9.7,2.66"/></clipPath><linearGradient id="linear-gradient" x1="-2603.35" y1="2085.58" x2="-2602.16" y2="2085.58" gradientTransform="matrix(45.02, 0, 0, -45.02, 117213.76, 93927.68)" gradientUnits="userSpaceOnUse"><stop offset="0" stop-color="#046289"/><stop offset="0.04" stop-color="#0b5d7f"/><stop offset="0.16" stop-color="#1d5166"/><stop offset="0.29" stop-color="#2b4853"/><stop offset="0.44" stop-color="#354145"/><stop offset="0.64" stop-color="#3a3d3d"/><stop offset="1" stop-color="#3c3c3b"/></linearGradient><clipPath id="clip-path-2" transform="translate(0.84)"><path class="cls-1" d="M.07,43.29c-.91,8,6.91,7,6.91,7-4.35-.6-4.82-3.93-4.82-3.93C1.53,43,3.23,38.77,3.23,38.77L2.46,37C.79,38.71.07,43.29.07,43.29"/></clipPath><linearGradient id="linear-gradient-2" x1="-2245.63" y1="2114.35" x2="-2244.45" y2="2114.35" gradientTransform="matrix(5.9, 0, 0, -5.9, 13245.29, 12514.38)" xlink:href="#linear-gradient"/></defs><g id="Layer_2" data-name="Layer 2"><g id="Layer_1-2" data-name="Layer 1"><path class="cls-2" d="M42.17,19.86A32.69,32.69,0,0,0,46.53,9.7a1,1,0,0,0-.33-.85C45,7.91,43.76,7,42.48,6.16a1.21,1.21,0,0,0-1,.14c-1,.68-1.91,1.44-2.86,2.16a3.11,3.11,0,0,1-5.18-1.71c-.33-1.12-.66-2.23-1-3.35-.13-.5-.33-.83-.92-.82-1.59,0-3.17,0-4.76,0-.26,0-.64.42-.75.72-.39,1.16-.67,2.36-1,3.52a3.09,3.09,0,0,1-5.1,1.63C19,7.79,18,7.1,17.13,6.35a1,1,0,0,0-1.47-.06c-1.18.89-2.36,1.76-3.56,2.61a.81.81,0,0,0-.28,1.1c.47,1.23.93,2.47,1.32,3.73a2.92,2.92,0,0,1-2.93,4c-1.32,0-2.64-.05-4,0a1.24,1.24,0,0,0-1,.59c-.54,1.45-1,2.94-1.43,4.44a1.14,1.14,0,0,0,.39.94c1,.76,2.06,1.44,3.09,2.16a3,3,0,0,1,.07,5.22c-1,.73-2.06,1.44-3.1,2.15a.86.86,0,0,0-.46,1.13c.46,1.36.88,2.73,1.3,4.11a1.05,1.05,0,0,0,1.23.82,32.19,32.19,0,0,1,4.05,0,3.53,3.53,0,0,1,1.89.75,2.91,2.91,0,0,1,.77,3.36c-.47,1.39-1,2.76-1.46,4.19,2-.46,8.64-4.4,9.64-5.66A15.58,15.58,0,1,1,42.17,19.86M23.91,48.09c.42.9.84,1.67,1.13,2.48.37,1,.6,2,.95,3.06.1.3.41.72.64.73,1.61.08,3.23,0,4.85.08.66,0,.87-.35,1-.92.3-1.16.66-2.3,1-3.43a3,3,0,0,1,4.86-1.62c1,.74,2,1.51,3,2.3a.87.87,0,0,0,1.21.11c1.23-.92,2.47-1.81,3.72-2.7a.92.92,0,0,0,.31-1.26c-.48-1.23-.92-2.47-1.31-3.73a2.92,2.92,0,0,1,2.84-3.91c1.32,0,2.64,0,4,0a1,1,0,0,0,1.16-.78c.44-1.43.93-2.84,1.32-4.29a1.12,1.12,0,0,0-.37-.94c-1-.79-2.1-1.48-3.16-2.23a3,3,0,0,1,0-5.19q1.54-1.09,3.12-2.13a.78.78,0,0,0,.41-1.05c-.48-1.41-.87-2.86-1.38-4.27a1.22,1.22,0,0,0-.84-.72,1.5,1.5,0,0,0-1,.61c-1.87,2.84-3.63,5.75-5.57,8.54a6.09,6.09,0,0,0-1.21,3.36,4.48,4.48,0,0,1,0,.64,15.54,15.54,0,0,1-13.61,13,4.18,4.18,0,0,0-1.84.41c-1.82,1.24-3.55,2.61-5.16,3.82M0,48.75a4.86,4.86,0,0,0,4.12,4.5,17.25,17.25,0,0,0,4.54-.11,30.56,30.56,0,0,0,10-4,85.52,85.52,0,0,0,22.2-19A63.58,63.58,0,0,0,51.12,14.52a20.39,20.39,0,0,0,2.14-8.94A5.45,5.45,0,0,0,47.66,0c-3.84-.12-7.22,1.35-10.11,2.65A51.21,51.21,0,0,1,43,1.94C46.47,1.81,48.6,4,48.6,7.52A21.08,21.08,0,0,1,45.91,17,67.07,67.07,0,0,1,34.47,32.89,76.34,76.34,0,0,1,17,47.13a28.64,28.64,0,0,1-10.4,4c-2.51.33-4.85,0-6.59-2.35" transform="translate(0.84)"/><path class="cls-3" d="M42.17,19.86A15.58,15.58,0,1,0,21.28,41.94c-1,1.26-7.66,5.2-9.64,5.66.5-1.43,1-2.8,1.46-4.19a2.91,2.91,0,0,0-.77-3.36,3.53,3.53,0,0,0-1.89-.75,32.19,32.19,0,0,0-4,0,1.06,1.06,0,0,1-1.23-.82c-.41-1.38-.84-2.75-1.3-4.11a.87.87,0,0,1,.46-1.14c1-.7,2.08-1.41,3.1-2.14a3,3,0,0,0-.07-5.23c-1-.71-2.09-1.39-3.09-2.15a1.1,1.1,0,0,1-.38-.94c.41-1.5.88-3,1.42-4.45a1.3,1.3,0,0,1,1-.59c1.32-.06,2.64,0,4,0a2.92,2.92,0,0,0,2.93-4c-.39-1.26-.85-2.5-1.32-3.73a.81.81,0,0,1,.28-1.1c1.2-.85,2.38-1.72,3.56-2.61a1,1,0,0,1,1.47.06C18,7.1,19,7.79,19.88,8.5A3.09,3.09,0,0,0,25,6.87c.37-1.16.65-2.36,1-3.52.11-.3.49-.7.75-.71,1.59-.08,3.17,0,4.76-.06.59,0,.79.32.92.81.3,1.13.63,2.24,1,3.36a3.11,3.11,0,0,0,5.18,1.71c.95-.72,1.87-1.48,2.86-2.16a1.21,1.21,0,0,1,1-.14C43.76,7,45,7.91,46.21,8.85a1,1,0,0,1,.32.85,32.56,32.56,0,0,1-4.36,10.16" transform="translate(0.84)"/><path class="cls-4" d="M23.91,48.09c1.61-1.21,3.34-2.58,5.16-3.82a4.18,4.18,0,0,1,1.84-.41,15.54,15.54,0,0,0,13.61-13,4.6,4.6,0,0,0,0-.64,6.09,6.09,0,0,1,1.21-3.36c1.94-2.79,3.7-5.7,5.57-8.54a1.5,1.5,0,0,1,1-.61,1.22,1.22,0,0,1,.84.72c.51,1.41.9,2.86,1.38,4.27a.78.78,0,0,1-.41,1.05c-1.05.69-2.09,1.4-3.12,2.12a3,3,0,0,0,0,5.2c1.05.74,2.13,1.44,3.15,2.22a1.15,1.15,0,0,1,.37,1c-.39,1.45-.88,2.86-1.32,4.29a1,1,0,0,1-1.16.78c-1.32-.06-2.64,0-4,0a2.92,2.92,0,0,0-2.84,3.91c.39,1.26.83,2.5,1.31,3.73a.92.92,0,0,1-.31,1.26c-1.25.89-2.49,1.78-3.72,2.69a.86.86,0,0,1-1.21-.1c-1-.79-2-1.56-3-2.3a3,3,0,0,0-4.86,1.62c-.36,1.13-.73,2.27-1,3.42-.15.58-.36.94-1,.93-1.62,0-3.23,0-4.85-.08-.23,0-.54-.44-.64-.73-.35-1-.58-2.06-.95-3.06-.29-.82-.71-1.58-1.13-2.48" transform="translate(0.84)"/><g class="cls-5"><rect class="cls-6" x="0.84" width="53.37" height="53.39"/></g><g class="cls-7"><rect class="cls-8" y="37.04" width="7.82" height="14.28"/></g></g></g></svg>