<svg xmlns="http://www.w3.org/2000/svg" viewBox="0 0 1038.81 773.33"><defs><style>.cls-1{fill:#b2d1fd;}.cls-2{fill:#bedafd;}.cls-3{fill:#fdfefe;}.cls-4{fill:#8db6fc;}.cls-5{fill:#5a90e0;}.cls-6{fill:#ea7160;}</style></defs><g id="Layer_2" data-name="Layer 2"><g id="Layer_1-2" data-name="Layer 1"><path class="cls-1" d="M1033.82,529.68c-1.13,15.4-2.74,30.67-7.43,45.54a136.18,136.18,0,0,1-13.43,30.3A123.46,123.46,0,0,1,984,638.23c-21,16.58-45.29,24.53-71.4,28-36.83,4.89-73.78,4.31-110.73,2.11-35.73-2.13-71.37-5.84-107.21-6.07-37.81-.25-75,3.41-109.6,19.87-18.93,9-36.94,19.89-55.61,29.46-48.71,25-99.69,43.37-153.69,53.28a526.9,526.9,0,0,1-115.84,8c-13.12-.5-26.22-1.57-39.31-3-30.61-3.24-60-10.43-87-25.47a199.85,199.85,0,0,1-67.43-61.25,6.47,6.47,0,0,1,3.67-5.08c7.23-3.1,14.61-5.81,21.78-9.14a99,99,0,0,1,16.27-6c2.76-.73,3.72-2.21,3.65-5-.15-5.83-.13-11.66,0-17.49.06-3.06-.61-4.42-4-3.09-8.17,3.2-16.41,6.21-24.64,9.28L49.91,659c-9.36-12.88-15.86-27.29-22.18-41.77C16.28,591,9.28,563.48,5,535.27c-1.88-12.45-3.48-25-3.1-37.7,7-.67,13.48-3.28,20.12-5.22,30.18-8.84,60.3-17.86,90.45-26.79,3.65-1.08,7.44-1.75,11-3.13,1.39-.54,4.58-.92,3.19-3.84-1.26-2.65-10.21-5.75-13.17-4.92a5.5,5.5,0,0,0-.17-2c-2.18-4.51-7.42-5.34-10.67-8.65-.95-1-2,.42-2.17,1.77-.31,2.12-.59,4.26-1.08,6.34-.46,1.92-.91,4.26-3.39,4.33-2.07.06-3-1.73-3.61-3.58-.8-2.27-1.27-4.44-.2-6.77.42-.89.61-2.15-.26-2.79s-1.75.34-2.53.92a90.47,90.47,0,0,1-8.48,6.07c-2,1.13-4.06,3.58-6.72,1.41-2.5-2-1.7-4.67-1.12-7.35.88-4,3.46-7.29,5.27-11.17-3.1-.37-4.57,1.79-6.47,2.89-3.42,2-6.35,4.94-10.47,5.52-4.63.66-5.91-1-4.17-5.32a24.34,24.34,0,0,1,8.46-10.22c3.4-2.52,2.5-3.72-.44-5.6-3.48-2.22-7.17-4.23-9.92-7.46-1.63-1.92-3.86-4.05-2.3-6.53s4.67-2.19,7.29-1.32c2.89,1,5.7,2.16,8.54,3.26.47-1.43-.32-1.95-.66-2.66-.58-1.23-2.29-2.38-.75-3.92s3-.66,4.58.06c2.19,1,3.66,2.83,5.5,4.23,2.73,2.06,3.69,5.87,7.41,7.45.17-4.16-2-6.26-4.89-8.22-4.53-3.06-4.48-4.38-.42-7.76-3.47-4.72-9.78-8-7.35-15.62.31-1-.8-1.71-1.69-2.24-2.65-1.57-4.27-4.08-6.13-6.44-1.44-1.83-3-3.81-1.44-5.74s4-1,6.1-.48,4,2.73,7.11,2.2c-1.36-1.89-2.48-3.31-3.45-4.83-3.08-4.88-7.49-9-8.8-14.89-.53-2.35-1.55-5,.84-6.9s4,.4,5.91,1.17c3.35,1.36,5.62,4,7.77,6.81,1.11,1.44,1.58,3.5,4.08,4.62-.64-2.62-1.13-4.68-1.65-6.73s-1.17-4.2,1-5.34c2.47-1.27,4.33.14,5.92,2.18,3.32,4.24,4.31,9.45,6.26,15,1-3.86,1.67-7.09,2.69-10.2.66-2,1.67-4.43,4.24-4.3s3.21,2.41,3.57,4.7c1.06,6.88,1.43,13.81,1.85,20.74.09,1.62-.7,3.54,1.27,5.12.38-.86.59-1.46.89-2,2.14-3.86,2.9-8.59,7-11.26,2.89-1.89,4.94-2.16,6.26,2,1.27,4-.64,7.5-.88,11.23-.35,5.54-3.55,10.58-3.48,16.55.59-.41,1-.53,1.09-.77,4.14-8.37,4.13-8.37,12.83-6.53v9c-1.85.1-1.84,1.52-2.11,2.84a39.91,39.91,0,0,1-4.21,11.58c-4.57,8.17-9.3,16.24-2.66,25.54.09.12,0,.35.07.49,2.4,4.69,2.68,10.26,6,14.57-1,3.52,1.53,6.31,2,9.53.15,1,.88,1.21,1.81,1.25,6.38.27,11.62-6.43,8.65-12a21.34,21.34,0,0,0-8.6-9.13c-1.75-4.82-5.5-9.5-1-14.73l1,0c2.89,0,7.75,1,8.3-.09,1.4-2.88-2.09-5.44-3.27-8.28-1.28-3.08-2-6,1.11-7.94,2.61-1.63,2.85-3.66,2.9-6.27.18-8.74-.32-17.47-.28-26.21.4-84.22.26-168.44.23-252.66,0-24-.14-47.93-.22-71.89,13.85-10.25,29.2-17.8,44.85-24.77C215.2,12.65,245.75,5,277.35,1.74a326.66,326.66,0,0,1,88,2.81c5.41.91,10.86,1.52,16.09,3.26,0,4.64-.69,9.77,2.79,13.27,4.46,4.47,4.35,9.65,4.25,15.15-.12,6.32-.11,12.65,0,19,.09,5.78,1.12,11.66.33,17.3-.67,4.78.76,5.36,4.78,5.32,14-.16,28-.06,42-.06,9.89,0,9.89,0,9.89,9.68q0,122.66,0,245.32L443.84,334c-1.43-1.91,1.64-4.85-1.46-6.38l0-1.82c2.66-3.28,1-7,1-10.54q.14-66,.06-131.93,0-49.23,0-98.45c0-2.75.38-5.22-3.87-5.19-25.16.14-50.31.08-75.46,0-2,0-3.64.29-4.37,2.42-.58,1.7-.88,4-3.42,3.34-2.16-.56-3.06-2.41-2.89-4.68l.4-.45-.45.4c-2.73.35-4.81,2.2-7.29,3.13-4.47,1.67-8.72,1-13-1s-2.8-5.36-2.66-8.46-.74-4.56-4.15-4.75c-7.92-.44-15.82-1.38-23.75-1.91-16-1.09-32.1-1.75-48.1-3.21-6.14-.56-12.26-.5-18.37-1-16.34-1.22-32.68-2.46-49-3.93-4.73-.42-5.8,1.31-5.8,5.83q.19,148.88.13,297.76c0,1.55-.61,3.27.91,5.08l8.48-5.86c2.79-.13,5.45-1.24,8.31-.83s4,1.62,2.68,4.33a24.48,24.48,0,0,1-3.16,5c-2.55,3-5.85,5.35-7.95,8.78-3.83.72-5.57,3.69-8.23,7.18,3.56-.62,6.17-.66,8.31-2.41l10.43.09c2.42,0,4.91.45,5.89,2.85,1.15,2.81.3,5.56-1.81,7.78-1.63,1.72-3.83,2.57-6,3.42-2.49,1-5,1.93-7.81,3a8,8,0,0,0,4,2c5.3,1.42,6.1,4,2.45,8.05-2.1,2.33-4.23,4.69-7.22,6-2.25,1-4.13,2.7-6.66,3.24a3,3,0,0,0-2.66,3.11,3.69,3.69,0,0,0,2,3.66,19.38,19.38,0,0,1,3.41,2c3.44,2.74,3.28,4.28-.75,6.11-2.86,1.3-2.94,2.38-.1,3.66a4.15,4.15,0,0,1,2.46,2.31c.21,2.74-1.43,5.07-3.6,5.23s-1.82-2.93-2.45-4.67c-1.75-4.84-3.5-9.67-5.41-14.44-.72-1.77-1.51-4.29-4-3.69-2.23.55-1.45,3-1.55,4.77-.07,1.33,0,2.67,0,4-.39,6.61.87,13.29-.83,19.86-.43,1.65-.48,3.37-2.62,3.72a4,4,0,0,1-4.46-2.53c-1.8-6.07-7.19-9.21-10.72-13.84-1-1.34-3.17-2.26-3.91.13s-1.56,5.27,1.42,7.15c.71.45,3.29,11.32,2.92,12.05-.49,1-1.38.41-2.09.57-4.22,1-8.62,5.87-8.16,7.58,1.67,6.31.77,11.8-1.52,17.47a1.58,1.58,0,0,0,.06,1,27.25,27.25,0,0,0,10.82,14.42c1.3.87,2.5,1.43,3.18-1.08,2.46-9.18,7.18-17.45,11.24-25.95,1.95-4.09,4-8.46,8.44-12.46-.47,4.73-2.56,7.51-4.09,10.51-4.74,9.27-10.56,18-13.06,28.37-1.06,4.44.53,5.11,4,4.68a115.73,115.73,0,0,0,18.4-4c0,34.41-.11,68.82.11,103.23,0,4.06-1.33,6.34-4.77,7.38s-6.61,3.16-10.34,3.4c-.26-3.59-.66-7.17-.76-10.76-.23-8-3.07-15.52-4.38-23.33-2-11.88-4.55-23.67-7-35.47-.61-2.93-2.66-3.83-5.7-3.12s-5,1.71-4.07,5.26c3,12,4.11,24.42,6.31,36.59,3.46,19.13,4.23,38.44,5.45,57.72.76,12.1.14,24.29.14,36.45,0,7.81-.06,8-7.6,9.47-2,.39-3.66.47-3.39,3.07-9.89.57-19.39-1.68-28.87-4.07-2.57-.65-3.81-2.37-4.13-5-.67-5.27-1.85-5.89-6.86-3.77-1.51.64-3,1.4-4.46,2.11-2.1,1-4.5,1.83-4.59,4.67s2.33,3.78,4.39,4.84c5.13,2.63,10.85,2.71,16.36,3.73A151.1,151.1,0,0,0,144,695.5a159.36,159.36,0,0,0,22.19-2.07c5.7-.82,11.51-1.62,16.61-4.66,4-2.39,4.77-5.22,1.77-7.33-5.68-4-12-5.9-19.07-4.79v-37c5.91-1.94,11.4-4.88,17.32-6.89,5.15-1.75,10.59-3.5,14.89-7.26,7.22,2.42,14.66,3.53,22,1.14,14.45-4.71,29.22-5.22,44.23-5.16,7.37,0,14.84-1.35,21.48-5.33,6.93-4.17,14.35-6.81,22.61-6.45a51.2,51.2,0,0,0,15.71-1.93,9.56,9.56,0,0,0,7.36-7.29,16.92,16.92,0,0,1,6.13-9.35c6.87-5.39,6.51-11.38-.78-16.44-1.63-1.13-3.36-2.13-5-3.19-.73-5.36,2.22-6.91,6.92-6.81a36.16,36.16,0,0,0,6.85-.63c7.26-1.24,14.27-4.26,21.86-3.42l4.65,21.67c-5.29,3.21-6.6,7.23-2.66,9.56,2.78,1.65,3.32,3.69,4.08,6.26a51.13,51.13,0,0,1,2.4,15.7c0,2.5.54,4.14,3.34,4.57,5.77.9,11.14,3.32,16.78,4.66,7.27,1.74,14.67,3.24,22.17,1.23,2.57-.69,5.68-1.19,6.65-3.89,1.41-3.89,3.79-3.14,6.71-2.54,7.68,1.59,15.45,2.78,23.23.94,6.33-1.5,7.91-7,3.69-12a10.77,10.77,0,0,0-4.77-3.51c-6.14-2-11.92-5.07-18.23-6.66-5.2-1.31-6-2.84-3.83-7.84,1.12-2.63,2-5-.6-7.18,0-2.19,0-4.38,0-6.57.91-8.46.43-17,2.39-25.41,1.83,0,3.66,0,5.49.1,4.39.29,6.39-1.42,6.06-6.1s0-9.3,0-14l3.49,0H616c2.26,0,4.75-.58,6.19,2a44.79,44.79,0,0,0,.61,5.93c.82,3.51-.27,7.54,2.13,10.53a13.45,13.45,0,0,1,2.79,8.77,73.78,73.78,0,0,0,1,10.35c1.25,8,4.5,16.35-2.28,23.62-1.68-1-3.33-.84-5.18-.25-3.75,1.2-7.59,2.13-11.39,3.18-4.91,1.35-10,2.29-14.3,5.23-3.4,2.3-4.9,4.76-1.35,8.14-3.35,3.09.27,3.48,1.81,4,5.29,1.75,10.73,1.62,16.24,1,11-1.25,21.95-3.42,33.06-3.44,4.85,0,6.91-1.48,5.83-6.38a42.92,42.92,0,0,0-.86-7.21c-.67-2.39-.25-5.87-4.25-6,.42-14.86,1.73-29.6,6.63-43.77,1.76-5.11.77-10.62,2.63-15.67l82.15,0,1,.85c0,1.73,1,2.18,2.54,2l.31-.06,1.66,1.13,2.48.15,1.55.83c1.78-.83,3.09.07,4.5,1.07,4.56,3.23,9.11,6.48,13.8,9.51,4,2.58,7,5.62,7.77,10.63a12.57,12.57,0,0,0,4.42,8.08c-1.93,1.74-.7,3.67-.31,5.53,1.45,6.91,3.77,13.78-2.21,20a4.3,4.3,0,0,0,.68,6.56c-.5,3.11,2.35,3.53,3.81,3.34,4.06-.52,8.27-.08,12.18-1.75,4.3-1.84,6.14-5.28,6.77-9.66a99.46,99.46,0,0,0,1.08-16.35c12.48,2.16,25.12.8,37.69,1.89,13.79,1.19,27.69-.3,41.54-.78,16.22-.56,32.29-2.24,48.1-6.07a10.36,10.36,0,0,0,5.42-3.33c1.14-1.28,1.63-2.71.09-3.88-1.75-1.33-2.6-.39-3,1.52-.48,2.2-2.32,2.7-4.23,2.65-2.13-.06-2.6-1.68-2.79-3.47-.4-3.83-2.61-5.79-6.39-6.37A307.82,307.82,0,0,0,868,549.83c-21.53.1-43.15-1.94-64.58,1.89-1.54-9.23-.34-18.44-.19-27.68.45-28.09.16-56.2.15-84.3a101.5,101.5,0,0,0,18,1c.5,9.16-1.51,18.14-2.27,27.19-.63,7.53-1.25,15.12-2.37,22.65a291.17,291.17,0,0,0-3.43,34c-.11,3.77.78,5.23,4.93,5.19q32.2-.31,64.42,0c4.37.05,5-1.77,4.66-5.35q-2.53-22.89-5-45.8-2-19-4-37.93c6.35-.14,12.73.49,19-1,0,24.61-.05,49.21,0,73.81,0,5.11-2.2,11.84.9,14.93,3.55,3.54,10.42.69,15.81,1.23,3.24.32,4.58-.92,4.27-4.22-.82-9-1.52-18.1-2.3-27.15-.6-6.9-1.18-13.81-1.93-20.7-1.37-12.62-4-25.11-3.8-37.9l19-1.05c0,28.28.11,56.57-.08,84.85,0,4.83,1.45,6.27,6.26,6.25C968.26,529.6,1001,529.68,1033.82,529.68ZM95.47,413.73c1.82,4.91,4.57,9,4.64,13.2.16,9.33,5.62,14.36,12.49,18.85a42.22,42.22,0,0,1,5.56,4.17c1.42,1.31,2.57,1.74,4.38.75,2.06-1.13,1.66-2.53,1-4.2-2-5.11-4.51-10.11-5.68-15.4C115.23,419.13,105.66,416.88,95.47,413.73ZM367.49,28a9.77,9.77,0,0,0,.38,2.56c2.27,7.45,8.68,11.54,13.77,16.67,1.31,1.32,2.79.14,3.85-1.05,1.23-1.37,1.05-2.71-.19-4-2.34-2.37-4.61-4.81-7.06-7.06-4.29-4-6.81-8.12-3.2-13.94,1.13-1.81.14-3.68-1.6-4.69-2.09-1.23-3.06.67-3.81,2A16.48,16.48,0,0,0,367.49,28Z"/><path class="cls-2" d="M1033.82,529.68c-32.78,0-65.56-.08-98.33.1-4.81,0-6.29-1.42-6.26-6.25.19-28.28.09-56.57.08-84.85,1.28-.32,2.55-.75,3.85-.94,7.14-1.09,7.15-1.07,7.16-8a3.4,3.4,0,0,0-3.16-2c-14.17-1.07-28.27-3-42.52-3-5.94,0-11.88-.6-17.83-1-1.08-.06-2.64.47-2.94-1-.14-.68.81-1.7,1.44-2.41a30.46,30.46,0,0,0,8-22.17c-.14-3.49,0-7,0-10.47,0-10.25,0-10.25-9.61-12.27l-2.9-.62c-2.33-.5-5.73,1.4-6.82-1.12-1-2.32,2.51-3.94,3.5-6.19a2.72,2.72,0,0,1,.56-.82c7.05-6.86,14-14.09,23.23-8.88,2.64,5.11-.06,10.08-.54,15.06-.58,6.13-.1,11.66,3.8,16.88s7.61,10.5,6.94,17.64a12.64,12.64,0,0,0,1.5,6.2c.74,1.54,2,3.31,4.18,3,1.81-.27,2.72-1.73,3.19-3.45.22-.8.64-1.55.79-2.36a86.36,86.36,0,0,0-2.59-44c-2-6.21-6.18-11.32-13.23-12.93-3.17-2.7-6.3.46-9.54.08-6.74-.8-12.19,2.25-16.93,6.84-2.59,2.52-5.3,4.92-8,7.38,2-7,5-13.48,7.73-20a9.82,9.82,0,0,1,7.49-6.4c11.42-2.61,20.25-8.85,25.85-19.29,1.79-3.33,5-4.75,8-6.41a36.25,36.25,0,0,0,8.58-5.92c1.28-1.28,2.29-2.81,1.64-4.43-1.49-3.71.93-6.14,2.77-8.41,4.85-6,7.25-13,9.08-20.24a7.79,7.79,0,0,0-2.5-8.16c-2.55-2.05-5.77-1.47-8.45.15a37.78,37.78,0,0,0-6.28,4.86c-3.86,3.64-7.22,7.89-11.4,11.09-3.15,2.42-6,6.5-11.12,4.88,2.93-6.26,5.69-12.59,9.74-18.27a32.06,32.06,0,0,0,6.15-17.55c.14-3.62-.94-7.29-4.56-8.69a8.35,8.35,0,0,0-9.87,2.47c-3.56,4-6,8.58-8.64,13.17-3.26,5.79-5.49,12.4-11.79,16,2-5.74,4.32-11.41,6.09-17.24,2.18-7.18,5.33-14.22,3-22.15-2.13-7.43-6.84-8.94-12.64-3.77-4.85,4.33-7.46,9.92-9.7,15.87-1.36,3.62-1.52,8.34-6.65,9.48-1.19.27-1.18,1.5-1.15,2.48.08,3-.28,6.08.46,8.9,2.34,9-2,16.51-4.77,24.4-.38,1.08-1.67.86-2.65.91-.53-6-4.64-11-4.69-17.13a41,41,0,0,0-3.44-15.43,26.33,26.33,0,0,0-2.63-5.35c-1.87-2.64-4.17-5-7.88-3.94s-4.33,4.33-4.24,7.17c.27,9-1.18,17.89-1.09,26.85a17.26,17.26,0,0,0,1.42,7.25c1.65,3.38,2.08,6.9,2.53,10.5.87,6.92,2.07,13.79,5.49,20,1.46,2.65,2.63,5.88,6.46,6.16,2.37,6.11,1.95,12.67,2.92,19,.22,1.41,1,3.9-1,4.32-1.88.39-2.38-2.08-2.89-3.51-3.39-9.39-8.35-18.16-10.94-27.86a76.32,76.32,0,0,0-1-12.86c-3.79-19.23-10.12-37.06-25.66-50.32a44.13,44.13,0,0,0-13.47-8.26c-2.62-.95-5.11-.87-7.34,1.38s-1.3,4.17-.57,6.44a21.75,21.75,0,0,0,4.6,7.61c6.29,7.22,10.51,14.93,9.73,25.14a20.26,20.26,0,0,0,3.64,13.58c3.17,4.4,7.69,7.24,11.07,11.28-8.28-3-16.94-5.24-24.18-10.66a35.06,35.06,0,0,0-12.44-6c-6.26-1.59-10.9,2.39-11.48,8.75-1.1,12.08,13.64,23.07,22.54,23,1.63,0,3.7-.61,4.7.95,2.74,4.24,7,3.79,11.06,4,5.48.32,10.82-1.33,16.35-1.1,4.48.19,7.14,2,8.42,6.15l-4-1c-.65-1-1.32-1.06-2,0-6-1.76-12.23-1.1-18.33-.79a18,18,0,0,0-13.86,7.86c-8.73,12.6-9.08,26.29-3.4,40.19,1.08,2.63,3.31,5.32,6.93,4.62,4-.76,2.75-4.21,2.53-6.53-.7-7.6-1.33-15.12,1.08-22.58,1.35-4.19,3.09-6.94,8.19-5,6.29,2.42,11.83.46,16.34-4,2.55-2.54,4.37-5.81,6.52-8.75,1.86-1.34,3.44-.41,5,.61,6.4,4.18,8.8,10.92,10.79,17.68,2.74,9.32,2.49,9.26-7.17,9.77-3.57.18-7.59.29-10.51,2-2.65,1.52-.62,5.58-1.22,8.45,0,.16-.06.33-.08.49-1.7,12.39-2,24.47,7.18,34.63,1.44,1.59,1.3,3.36-1.28,3.27-3.05-.09-5.89,1.1-8.86,1.06-14.26-.2-28.42,1.53-42.64,2.22-3,.14-7-.82-9.22,2.81-1.59,5.26-.22,7.52,4.72,8,2.11.2,4.19.65,6.29,1,.5,29.82-1.09,59.66.85,89.47-1.75-.81-2.53-2.61-3.89-3.78-4.53-3.9-5.54-10.14-9.41-14.31-16-17.21-32.9-33.4-52.23-46.87a4.87,4.87,0,0,1-2.34-5.44,557.36,557.36,0,0,0,6.91-85.38c0-4.8-.49-9.63.59-14.41,2.86-12.59.62-24.33-5.69-35.51-2.56-4.53-6.44-8-9-12.47.26-.61.34-1.53.79-1.77,8.5-4.47,6.81-12.88,6.89-19.91.11-9.07-1.5-18.15-1.42-27.29.1-11.14.23-22.29-1.09-33.38-1-8.49-2.7-16.77-9.49-22.89-4.33-3.91-9.91-5.28-15.14-7.36a8.67,8.67,0,0,0-2.31-6.31c-4.28-5.16-7.19-10.28-6.69-17.93a73.7,73.7,0,0,0-1.08-19.81c-.9-4.25.45-5.77,4.89-5,24.1,4.13,48.35,7.12,72.63,9.94,19.15,2.23,38.36,4,57.49,6.41,41.43,5.18,82.26,12.51,119,34.18,38,22.41,65.14,54.44,83.61,94.08,15.06,32.3,23,66.55,27.09,101.82a480.31,480.31,0,0,1,1.8,98.18C1036,505.16,1036.5,517.58,1033.82,529.68Z"/><path class="cls-2" d="M445.43,332.77q0-122.65,0-245.32c0-9.68,0-9.68-9.89-9.68-14,0-28-.1-42,.06-4,0-5.45-.54-4.78-5.32.79-5.64-.24-11.52-.33-17.3-.1-6.33-.11-12.66,0-19,.1-5.5.21-10.68-4.25-15.15-3.48-3.5-2.81-8.63-2.79-13.27,11.57,1.45,22.67,4.82,33.7,8.37,41.11,13.22,79.13,32.24,112.17,60.45,10.62,9.07,20.39,19.11,31.89,27.17a237,237,0,0,0,49.74,26.31c3.68,1.44,7.32,3,11,4.51.13.76.46,1.07,1.19.54l.45,1.92c-.66,0-.86.4-.75,1l-1.18,1.73-.32.13.05.35q-1.17,2.31-2.32,4.62c-2.32,3.89-2.16,7.55,1,10.94a1.2,1.2,0,0,1,.4.85c-.85,8-1.18,15.9,3.61,23.1.82,1.23.85,3.27.64,4.85-1.25,9.07,2.41,17.3,4.22,25.84a43.23,43.23,0,0,1-2.19,7.6c-5.13,11.56-8.91,23.47-8.42,36.38.09,2.49,1.72,4.8.85,7.34-2.61,7.61-5.29,15.21-7.94,22.81-1.86-3.73-.05-7.41.06-11.12.55-17.4,4.74-34,10.24-50.39,1.39-4.12-.23-4.42-3.56-4.41q-62.68.08-125.35,0c-3.9,0-5.24,1.3-5.23,5.22q.15,51.93,0,103.87c0,3.62,1.19,5,4.91,5q68.16-.15,136.33-.13c-1.31,9.29-3,18.54-3.85,27.87-2,21.14-4.13,42.27-5.66,63.47-1.74,24-.06,47.72,2.19,71.51,1.13,12.05,1.94,24.14,2.9,36.2-1.44-2.58-3.93-2-6.19-2H448l-3.49,0q0-29.2-.09-58.43c0-2.07.74-4.42-1.44-6l.36-1.21,1-1.41c1.3-4,1-8.2,1.13-12.34.31-13-.4-25.9-1.2-38.83,0-1.81,0-3.61,0-5.42,5.48-5.3,6.7-11.57,4.21-18.66-.18-3.76-.13-7.49-.63-11.27-.95-7.13-3.49-14-3.41-21.28,1.86-1.83.56-4.25,1.19-6.31,3.13.93,1.24,4.13,2.64,5.91.66.84.55,2.54,2.23,1.86,1.11-.45.92-1.64.69-2.62-.83-3.52-1.87-7-2.51-10.57S447.83,335.79,445.43,332.77Zm122.94,89.91c5-2.67,6.23-8.4,2.36-13.89-7.64-10.81-19.35-15.5-31.38-18.82a92.62,92.62,0,0,0-38.44-2.11c-5.93.89-12.12,1.18-19,4.78,2.37,0,3.36.2,4.23,0,11.12-2.86,22.47-2.05,33.74-1.9a75.82,75.82,0,0,1,41.77,12.78c8.31,5.54,9.84,10.05,6.73,19.23a4.09,4.09,0,0,0-3.75,2.48C566.89,425.26,568.11,424.62,568.37,422.68Zm-1-76.95c-1-1-1.92-2-3.67-1.21,1.09,1.66,2.51,1,3.71,1.17,3.36,5.55,4.68,11.16-.71,16.15a45.29,45.29,0,0,1-9.55,7.09,83.71,83.71,0,0,1-24.22,8.63c-10.67,1.95-21.3,2.95-32.09,1.51l-21.78-2.88c5.57,3.11,11.68,3.78,17.75,4.89a99.1,99.1,0,0,0,48.54-3.36c10.06-3.2,19.38-7.87,25.59-17.09C574.68,355.1,573.21,348.55,567.38,345.73Zm-114.59,63c1.14-1.79-.52-3.13-.09-4.6.29-1,.66-2.11-.87-2.19a2,2,0,0,0-2.18,2.19c.5,6,1.13,11.9,1.75,17.85.1.9,0,2.4,1.31,2.22s1-1.52,1.12-2.73C454.19,417.06,453.1,412.79,452.79,408.72Z"/><path class="cls-2" d="M9.84,295.05c.13-11.21,2.77-22.08,4.87-33,6.6-34.24,16.12-67.63,30.8-99.38,18-38.81,42.46-72.6,76.51-99,2.36-1.83,4.92-3.4,7.39-5.09,3.37,1,2,3.85,2,5.9q.11,93.14.06,186.27,0,9.5.05,19c0,2.13-.1,3.56-3,4.06-23,4-45.92,8.2-68.87,12.33Q34.77,290.63,9.84,295.05Z"/><path class="cls-2" d="M131.45,384.7c-8.7-1.84-8.69-1.84-12.83,6.53-.12.24-.5.36-1.09.77-.07-6,3.13-11,3.48-16.55.24-3.73,2.15-7.22.88-11.23-1.32-4.17-3.37-3.9-6.26-2-4.06,2.67-4.82,7.4-7,11.26-.3.56-.51,1.16-.89,2-2-1.58-1.18-3.5-1.27-5.12-.42-6.93-.79-13.86-1.85-20.74-.36-2.29-1-4.56-3.57-4.7s-3.58,2.26-4.24,4.3c-1,3.11-1.7,6.34-2.69,10.2-2-5.58-2.94-10.79-6.26-15-1.59-2-3.45-3.45-5.92-2.18-2.22,1.14-1.55,3.37-1,5.34s1,4.11,1.65,6.73c-2.5-1.12-3-3.18-4.08-4.62-2.15-2.81-4.42-5.45-7.77-6.81-1.88-.77-3.66-3-5.91-1.17s-1.37,4.55-.84,6.9c1.31,5.9,5.72,10,8.8,14.89,1,1.52,2.09,2.94,3.45,4.83-3.13.53-4.88-1.66-7.11-2.2s-4.68-1.32-6.1.48,0,3.91,1.44,5.74c1.86,2.36,3.48,4.87,6.13,6.44.89.53,2,1.26,1.69,2.24-2.43,7.58,3.88,10.9,7.35,15.62-4.06,3.38-4.11,4.7.42,7.76,2.89,2,5.06,4.06,4.89,8.22-3.72-1.58-4.68-5.39-7.41-7.45-1.84-1.4-3.31-3.23-5.5-4.23-1.58-.72-3.12-1.51-4.58-.06s.17,2.69.75,3.92c.34.71,1.13,1.23.66,2.66-2.84-1.1-5.65-2.3-8.54-3.26-2.62-.87-5.7-1.21-7.29,1.32s.67,4.61,2.3,6.53c2.75,3.23,6.44,5.24,9.92,7.46,2.94,1.88,3.84,3.08.44,5.6a24.34,24.34,0,0,0-8.46,10.22c-1.74,4.29-.46,6,4.17,5.32,4.12-.58,7.05-3.53,10.47-5.52,1.9-1.1,3.37-3.26,6.47-2.89-1.81,3.88-4.39,7.12-5.27,11.17-.58,2.68-1.38,5.31,1.12,7.35,2.66,2.17,4.76-.28,6.72-1.41a90.47,90.47,0,0,0,8.48-6.07c.78-.58,1.51-1.69,2.53-.92s.68,1.9.26,2.79c-1.07,2.33-.6,4.5.2,6.77.65,1.85,1.54,3.64,3.61,3.58,2.48-.07,2.93-2.41,3.39-4.33.49-2.08.77-4.22,1.08-6.34.2-1.35,1.22-2.73,2.17-1.77,3.25,3.31,8.49,4.14,10.67,8.65a5.5,5.5,0,0,1,.17,2c-4.42,1.35-8.85,2.72-13.28,4.06-18.53,5.59-37,11.26-55.6,16.74C30.32,478.68,16,482.64,1.67,486.72-.11,466.67-.11,446.57.09,426.47q.45-47.84,4.8-95.5c.8-8.84,1.28-17.76,3.34-26.46,16.31-1.58,32.22-5.55,48.36-8.15,23.16-3.73,46.21-8.24,69.2-12.9,5.22-1,5.83.42,5.8,4.91C131.44,320.48,131.47,352.59,131.45,384.7Z"/><path class="cls-3" d="M609.18,284.62c2.66-7.6,5.34-15.2,8-22.81.87-2.54-.76-4.85-.85-7.34-.49-12.91,3.29-24.82,8.42-36.38a42.35,42.35,0,0,0,2.18-7.6c5.19-.26,7.4-4.68,10.65-7.65a9.46,9.46,0,0,1,2.82.47,18.64,18.64,0,0,0,16.51.95.51.51,0,0,1,.78.32c.06.21.12.43.17.64l.36-.52c2.82-.09,4.68-2.11,6.86-3.46.62.25,1,0,1.05-.61,4.81-1.34,10.39.76,14.6-3.25,5.23,2.08,10.81,3.45,15.14,7.36,6.79,6.12,8.47,14.4,9.49,22.89,1.32,11.09,1.19,22.24,1.09,33.38-.08,9.14,1.53,18.22,1.42,27.29-.08,7,1.61,15.44-6.89,19.91-.45.24-.53,1.16-.79,1.77-2.73-2.4-5.86.8-8.94-.88-5-2.71-10.63-1.9-16-1.23a152.28,152.28,0,0,1-16.38.83c-9.46.18-18.91.26-28.37.39,0-1.17-.09-2.33,0-3.49.13-2.1-.11-4.08-2.06-5.27s-3,.88-4.27,1.66c-6.06,3.7-11,2.36-14.8-4.27a2.18,2.18,0,0,0-.09-1A30,30,0,0,1,609.18,284.62Zm15.47-51.91c.74,3.38,1.49,7,3.47,10.43,1.66,2.88,4.19,2.08,6.44,2.73a7.87,7.87,0,0,1,2.4,1.71c2.18,1.78,4.08,4.28,6.57,5.22,3.47,1.31,4.21-3.5,7-4.34,3.25-1,2.84-3,1.35-5.33-2.52-4-5.21-7.86-6.36-12.78-1.2-5.16-6.49-8.64-10-8C629.22,223.53,624.68,227.71,624.65,232.71Z"/><path class="cls-4" d="M131.45,384.7c0-32.11,0-64.22.14-96.33,0-4.49-.58-6-5.8-4.91-23,4.66-46,9.17-69.2,12.9-16.14,2.6-32.05,6.57-48.36,8.15.45-3.17-.19-6.52,1.61-9.46q24.91-4.44,49.84-8.89c22.95-4.13,45.89-8.36,68.87-12.33,2.88-.5,3-1.93,3-4.06q-.06-9.5-.05-19,0-93.14-.06-186.27c0-2,1.36-4.87-2-5.9a47.6,47.6,0,0,1,11.85-8.24c.08,24,.21,47.92.22,71.89,0,84.22.17,168.44-.23,252.66,0,8.74.46,17.47.28,26.21-.05,2.61-.29,4.64-2.9,6.27-3.08,1.93-2.39,4.86-1.11,7.94,1.18,2.84,4.67,5.4,3.27,8.28-.55,1.12-5.41.12-8.3.09l-1,0q0-15,0-30Z"/><path class="cls-5" d="M637.53,202.84c-3.25,3-5.46,7.39-10.65,7.65-1.8-8.54-5.46-16.77-4.21-25.84.21-1.58.18-3.62-.64-4.85-4.79-7.2-4.46-15.09-3.61-23.1.94-4.14,2.28-7.85,7-9.31,2.58-.8,4.45-.63,6,1.77,4.11,6.55,9.57,10.93,17.76,10.9,2.5,0,2,2,2.31,3.42a17.57,17.57,0,0,1,2.39-3.35c1.32-1.21,2.94-2.34,4.91-1.17,1.72,1,3.25,2.95,2.28,4.5-4.84,7.78-1.24,16.45-3,24.5-1,4.68-2.41,9.31-2.18,14.19-4.9-.4-10,1.57-14.74-1.41C640.07,200.13,638.25,201.33,637.53,202.84Zm1.6-35.41c-.21-.7-.1-2-1.53-1.79a1.57,1.57,0,0,0-1.19,1.88c.11,1,.58,2.09,1.7,2.07S639,168.43,639.13,167.43Z"/><path class="cls-4" d="M49.91,659l33-12.27c8.23-3.07,16.47-6.08,24.64-9.28,3.39-1.33,4.06,0,4,3.09-.12,5.83-.14,11.66,0,17.49.07,2.78-.89,4.26-3.65,5a99,99,0,0,0-16.27,6c-7.17,3.33-14.55,6-21.78,9.14a6.47,6.47,0,0,0-3.67,5.08A153.31,153.31,0,0,1,49.91,659Z"/><path class="cls-4" d="M1.67,486.72c14.31-4.08,28.65-8,42.92-12.25,18.56-5.48,37.07-11.15,55.6-16.74,4.43-1.34,8.86-2.71,13.28-4.06,3-.83,11.91,2.27,13.17,4.92,1.39,2.92-1.8,3.3-3.19,3.84-3.52,1.38-7.31,2.05-11,3.13C82.34,474.49,52.22,483.51,22,492.35c-6.64,1.94-13.14,4.55-20.12,5.22C.81,494,1.15,490.35,1.67,486.72Z"/><path class="cls-2" d="M637.53,202.84c.72-1.51,2.54-2.71,3.53-2.1,4.77,3,9.84,1,14.74,1.41.36.7.71,1.41,1.06,2.11a18.64,18.64,0,0,1-16.51-.95A9.46,9.46,0,0,0,637.53,202.84Z"/><path class="cls-6" d="M618,155.85c-3.17-3.39-3.33-7-1-10.94C617.35,148.56,617.68,152.21,618,155.85Z"/><path class="cls-6" d="M621.08,135.16c-.73.53-1.06.22-1.19-.54C620.55,134.23,620.88,134.56,621.08,135.16Z"/><path class="cls-6" d="M620.78,138.08c-.11-.6.09-1,.75-1C621.7,137.73,621.43,138,620.78,138.08Z"/><path class="cls-6" d="M619.33,140.29l-.05-.35.32-.13.33.24Z"/><path class="cls-2" d="M658.17,204.7l-.36.52c0-.21-.11-.43-.17-.64l.32-.19Z"/><path class="cls-2" d="M666.08,200.63c-.1.62-.43.86-1.05.61C665.11,200.57,665.48,200.39,666.08,200.63Z"/><path class="cls-3" d="M331.36,571.49c1.68,1.06,3.41,2.06,5,3.19,7.29,5.06,7.65,11.05.78,16.44a16.92,16.92,0,0,0-6.13,9.35,9.56,9.56,0,0,1-7.36,7.29A51.2,51.2,0,0,1,308,609.69c-8.26-.36-15.68,2.28-22.61,6.45-6.64,4-14.11,5.36-21.48,5.33-15-.06-29.78.45-44.23,5.16-7.31,2.39-14.75,1.28-22-1.14-2.22-2.67-6.44-3.62-6.45-8.21,0-6.31-.54-12.61-.56-18.92q-.13-55.89-.14-111.8c-.42-2.3,2.07-4.55.14-6.89q0-4.49-.07-9a3.6,3.6,0,0,0,.83-3.26,21.72,21.72,0,0,1,5.3-18.27,7.34,7.34,0,0,0,1.11-8.35c-1.62-3.53-4.67-1-7.06-1.3l-.06-21.81c3-1.28,5.12-3.64,7.22-6,3.65-4,2.85-6.63-2.45-8.05a8,8,0,0,1-4-2c2.81-1.08,5.32-2,7.81-3,2.15-.85,4.35-1.7,6-3.42,2.11-2.22,3-5,1.81-7.78-1-2.4-3.47-2.82-5.89-2.85l-10.43-.09c0-1.59,0-3.18-.08-4.77,2.1-3.43,5.4-5.77,7.95-8.78a24.48,24.48,0,0,0,3.16-5c1.34-2.71.05-3.95-2.68-4.33s-5.52.7-8.31.83q0-40.25,0-80.5c15.31-.67,30.1,1.2,43.51,9.29a6.48,6.48,0,0,0,5.56.84c7.52-2,15.13-3.61,22.68-5.45,14.28-3.49,29.26-2.73,43.38-7.49,4.61-1.56,9.49-3.15,14.6-2.6a223.07,223.07,0,0,1,.71,23.41q0,115.35.06,230.7c-1.41,1.37-1.07,3.19-.84,4.73.86,5.6-1.91,8.52-6.7,10.72-11.74,5.4-23.85,7.72-36.73,5.76-3.6-.54-7.28-.57-11-.84.06.69,0,.94.1,1a5.35,5.35,0,0,0,1.3.67c16.74,4.21,33.13,4.38,48.62-4.54,1.65-1,3.09-1.93,5.05-1.28,0,5.43.1,10.86.09,16.28,0,1.89.1,3.6,2.17,4.52C326.08,568.9,328.71,570.22,331.36,571.49ZM305.43,352.74c-.23-.53-.46-1.05-.68-1.57l-.57.35,1.28,1.18c0,3.75.76,7.53-3.26,10.26-14,9.46-29.42,11.19-45.6,9-7.05-1-7-1.26-9.56.21a73.69,73.69,0,0,0,29.51,3.38c10.37-.94,20.07-4.27,28.23-11.1C309.3,360.65,309.56,355.11,305.43,352.74Zm14.45,233.74c3.54-.51,5.1-2.3,5.52-5.44.7-5.19-2.28-8.6-5.95-11.21-12.62-9-27-10.43-41.8-8.53-4.53.58-9.42.79-13.37,3.87,3.47-.12,6.84-.73,10.25-1.06,14.79-1.42,29.24-.52,42.31,7.48C324.4,576.22,324.91,579.2,319.88,586.48ZM246.54,382.75c3.72-.56,7.43-1.23,11.16-1.66,14.85-1.67,29.15,0,42.15,7.9,2.84,1.73,5.9,3.89,5.74,8.12,0,1.06-.87,3.16,1.33,2.95,1.55-.15,1.41-2,1.47-3.31a8.16,8.16,0,0,0-2.32-5.85,27.74,27.74,0,0,0-8.88-7.1C280.66,376.08,263.73,375.89,246.54,382.75Zm56.13,21c-.15-.34-.27-.79-.34-.78a7.09,7.09,0,0,0-1.26.33l.44,1Zm-1.78-53.18.72-.35c-.12-.1-.24-.28-.35-.28a6.6,6.6,0,0,0-.89.14Z"/><path class="cls-4" d="M321.32,530.7q0-115.35-.06-230.7a223.07,223.07,0,0,0-.71-23.41q0-93.7,0-187.4a20.26,20.26,0,0,1,.19-3.49c1.18-6.89.79-7.64-6-7.81-23.89-.6-47.69-2.63-71.54-3.94-15.07-.83-30.14-1.6-45.16-3.07-6.95-.68-7.45-.12-7.45,6.74q0,99.2,0,198.4c0,2,.19,4,.28,6q0,40.25,0,80.5l-8.48,5.86c-1.52-1.81-.91-3.53-.91-5.08q-.06-148.87-.13-297.76c0-4.52,1.07-6.25,5.8-5.83,16.32,1.47,32.66,2.71,49,3.93,6.11.46,12.23.4,18.37,1,16,1.46,32.07,2.12,48.1,3.21,7.93.53,15.83,1.47,23.75,1.91,3.41.19,4.28,1.77,4.15,4.75S329,81,333.14,82.91s8.51,2.63,13,1c2.48-.93,4.56-2.78,7.29-3.13l0,.05c-.17,2.27.73,4.12,2.89,4.68,2.54.66,2.84-1.64,3.42-3.34.73-2.13,2.36-2.43,4.37-2.42,25.15,0,50.3.1,75.46,0,4.25,0,3.87,2.44,3.87,5.19q0,49.21,0,98.45,0,66-.06,131.93c0,3.5,1.66,7.26-1,10.54-1.38-2.55-2.71-5.13-4.16-7.63a1.69,1.69,0,0,0-2.05-.93c-.32.13-.72,1-.6,1.16,2.09,3.2,1.83,8.15,6.79,9.22,3.1,1.53,0,4.47,1.46,6.38-.54,1.72.54,3.14.88,4.7-1.39.73-1.34,1.42,0,2.07l-.12,2.93c-2.94,2.45.51,6.54-2.32,9-1.24-.23-1.34-2.22-3.1-1.83-5.2,1.14-11,.2-15.11,4.85-1.35-2.48,1-3.46,2.22-4.18,2.7-1.56,5.77-3.07,8.91-2.71s3.37-.84,3.15-3.19c-.25-2.78-1.54-6.12-.45-8.22,2.12-4.1-.33-6.24-2.22-8.75-1.69-2.24-4.26-3.75-5.57-6.35.09-1.87,2-2.93,1.95-5-.27-7.81.17-15.55,2.48-23.12.82-2.68.32-5.53.08-8.37-.41-4.62-3.65-9-2.23-13.52,2-6.18-.63-11.23-2.4-16.6.29-5.93-1.43-7.77-6.62-7.08-.09-1.13-.9-1.62-1.72-2.25-4.67-3.59-10.14-4.59-15.79-5.35-17.67-2.36-29.48,5.44-35.1,20.12-5.42,14.17-2.29,28.65,2.71,42.61a11.46,11.46,0,0,1-6.08,7.42,15.88,15.88,0,0,0-7.79,8.1c-3.31,8.09-7.73,15.68-10.53,24C344.22,358,340.23,373,331.49,386c-4.68,7-4.61,7,2.56,11.33l.44.23c9.41,5.44,9.45,5.46,5.54,16.14-.95,2.58-.65,4.33,1.83,5.87a36.18,36.18,0,0,0,14.44,5.06c2.28.32,3.75,1.05,3.2,3.84-1.44,7.41-1.18,15-.43,22.35.57,5.59-.94,13,7.48,14.9a9.84,9.84,0,0,0-.54,2.38c.4,22.26,1,44.49-.4,66.76-.54,8.52.86,17.17,1.38,25.76-7.59-.84-14.6,2.18-21.86,3.42a36.16,36.16,0,0,1-6.85.63c-4.7-.1-7.65,1.45-6.92,6.81-2.65-1.27-5.28-2.59-8-3.78-2.07-.92-2.17-2.63-2.17-4.52,0-5.42-.05-10.85-.09-16.28.09-2.68,2-4.49,3.19-6.61C326.67,536.25,325.57,532.8,321.32,530.7Zm89.1-380c3.27-.59,6,1.05,8.82,2.19,2.78,7.64,1.93,11.78-4.27,16.51a61.86,61.86,0,0,1-11.9,7.14c-20.2,9.1-41.31,9.77-62.81,6.27-1.63-.27-3.3-.34-4.9-.72a10.51,10.51,0,0,0-5.75,0c14.48,5.11,28.56,6.26,42.89,5.63A79.35,79.35,0,0,0,411.06,176a37.64,37.64,0,0,0,9.16-7.59c4.77-5.59,4.49-12.52-.56-15.9-2.92-4.41-6.32-5.07-9.23-1.78l-1.32.35.24.39ZM411,230c.55,1.54,1.4,1.79,2.21,1.61,4.2-.93,8.17-2.48,9.67-6.93a12,12,0,0,0-2.2-12.17c-7.38-8.78-17.42-13.43-28-16.56A97.08,97.08,0,0,0,347,193.74c-6.41,1.19-12.91,2.18-19.13,4.89a1.7,1.7,0,0,0,2.1.84c19.83-4.36,39.71-5.8,59.64-.65,9.93,2.57,19.21,6.56,26.89,13.57,3.17,2.89,5.46,6.29,4.16,11S415.69,229.65,411,230ZM334.45,361.29c4.53-5.13,6.49-11.38,7.87-17.8.3-1.4,1.24-4.29-1.41-4.39-2.28-.09-1.07,2.62-1.59,4-.8,2.15-1.36,4.39-2,6.55C336.19,353.45,333.88,357,334.45,361.29Zm16.14,92.8c1.72-6.58.38-13.14.53-19.69,0-1-.26-1.7-1.28-1.51-.5.09-1.3.84-1.26,1.24C349.13,440.78,348.19,447.58,350.59,454.09Zm7.83-138.66c.32-.09.75-.08.92-.28,2.81-3.4,5.42-7,9.55-9a1.09,1.09,0,0,0,.07-1.72,2.34,2.34,0,0,0-1.75-.45c-2.47.44-9.19,7.17-9.59,9.51C357.48,314.28,357.32,315.13,358.42,315.43Z"/><path class="cls-5" d="M630.45,309.09c9.46-.13,18.91-.21,28.37-.39a152.28,152.28,0,0,0,16.38-.83c5.37-.67,11-1.48,16,1.23,3.08,1.68,6.21-1.52,8.94.88,2.57,4.46,6.45,7.94,9,12.47,6.31,11.18,8.55,22.92,5.69,35.51-1.08,4.78-.57,9.61-.59,14.41a557.36,557.36,0,0,1-6.91,85.38,4.87,4.87,0,0,0,2.34,5.44c19.33,13.47,36.25,29.66,52.23,46.87,3.87,4.17,4.88,10.41,9.41,14.31,1.36,1.17,2.14,3,3.89,3.77,2.42,3.59,4.09,7.92,8.86,9.26-.88,3,2.86,3.83,2.88,6.38.29,2.27.73,4.54.84,6.82.52,10.67,0,11.26-10.35,13.26a12.49,12.49,0,0,1-4.43-8.07c-.8-5-3.76-8-7.77-10.63-4.69-3-9.24-6.28-13.8-9.51-1.41-1-2.72-1.9-4.51-1.07a1.31,1.31,0,0,0-1.54-.83l-2.49-.15-1.65-1.13-.31.06a2.5,2.5,0,0,0-2.54-2l-1-.85a571.25,571.25,0,0,0-49.53-31.21c-13.29-7.34-21.92-17.28-23.65-32.75-.7-6.31-2.19-12.53-3.32-18.79-4.36,6.65-8.79,12.84-6.36,21.19a50.18,50.18,0,0,1,1.57,12.81c.38,16.28.27,32.54-.86,48.78-1.86,5-.87,10.56-2.63,15.67-4.9,14.17-6.21,28.91-6.63,43.77-2.75,2.93-6.55,3.44-10.15,4.47s-7.16,1.15-9.46-2.72c6.78-7.27,3.53-15.63,2.28-23.62a73.78,73.78,0,0,1-1-10.35,13.45,13.45,0,0,0-2.79-8.77c-2.4-3-1.31-7-2.13-10.53a44.79,44.79,0,0,1-.61-5.93c-1-12.06-1.77-24.15-2.9-36.2C617,471.7,615.35,448,617.09,424c1.53-21.2,3.69-42.33,5.66-63.47.86-9.33,2.54-18.58,3.85-27.87a29.25,29.25,0,0,0,2.07-10.45C628.88,317.8,629.83,313.45,630.45,309.09Z"/><path d="M367,560.63c-.52-8.59-1.92-17.24-1.38-25.76,1.43-22.27.8-44.5.4-66.76a10.3,10.3,0,0,1,.53-2.38A140.52,140.52,0,0,0,405.35,471c10-.06,19.88-1.25,29.77-2.45a3.11,3.11,0,0,1,.3.94c-.81,20.91-1.7,41.82-2.43,62.74-.2,5.78-1,11.58,0,17.37-2,8.36-1.48,16.95-2.39,25.41-8.43-4.1-15.62-2.69-21.46,4.83-.36.46-1.14.59-1.73.88l-3.21-18c.58-.89.63-1.68-.46-2.24a8.6,8.6,0,0,0-.72-4.74c.22-5.83-1.55-11.26-3-16.78-1.33,5.24-2.74,10.34-1.86,15.67a167.07,167.07,0,0,0-3.25,27.93c-7.73-.39-15.48.9-23.21-.29Z"/><path class="cls-2" d="M878.33,440.7q2,19,4,37.93,2.46,22.9,5,45.8c.39,3.58-.29,5.4-4.66,5.35q-32.21-.33-64.42,0c-4.15,0-5-1.42-4.93-5.19a291.17,291.17,0,0,1,3.43-34c1.12-7.53,1.74-15.12,2.37-22.65.76-9.05,2.77-18,2.27-27.19Z"/><path class="cls-4" d="M803.37,551.72c21.43-3.83,43-1.79,64.58-1.89a307.82,307.82,0,0,1,47.89,3.91c3.78.58,6,2.54,6.39,6.37.19,1.79.66,3.41,2.79,3.47,1.91,0,3.75-.45,4.23-2.65.42-1.91,1.27-2.85,3-1.52,1.54,1.17,1.05,2.6-.09,3.88a10.36,10.36,0,0,1-5.42,3.33c-15.81,3.83-31.88,5.51-48.1,6.07-13.85.48-27.75,2-41.54.78-12.57-1.09-25.21.27-37.69-1.88C798.65,564.55,802.57,558.44,803.37,551.72Z"/><path class="cls-5" d="M371.64,582.3c7.73,1.19,15.48-.1,23.21.29,3,2.44,7,4.12,2,9-1.69,1.65-2.14,7.08.57,9.16A19.54,19.54,0,0,0,409,604.48c1.37,0,1.19-1.74,1.3-2.86a17.2,17.2,0,0,0-2.28-10.54,8.94,8.94,0,0,1-.73-8.45l7.2,0c3.33,1.34,6.57-1,9.88-.25,2.1,0,4.22.18,6.19-.81,2.58,2.2,1.72,4.55.6,7.18-2.13,5-1.37,6.53,3.83,7.84,6.31,1.59,12.09,4.61,18.23,6.66a10.77,10.77,0,0,1,4.77,3.51c4.22,5,2.64,10.51-3.69,12-7.78,1.84-15.55.65-23.23-.94-2.92-.6-5.3-1.35-6.71,2.54-1,2.7-4.08,3.2-6.65,3.89-7.5,2-14.9.51-22.17-1.23-5.64-1.34-11-3.76-16.78-4.66-2.8-.43-3.39-2.07-3.34-4.57a51.13,51.13,0,0,0-2.4-15.7c-.76-2.57-1.3-4.61-4.08-6.26C365,589.53,366.35,585.51,371.64,582.3Z"/><path class="cls-2" d="M190.68,479.67c1.93,2.34-.56,4.59-.14,6.89-2.14,1.26-4.25,2.59-6.43,3.76-2.55,1.36-3.73,2.76-.11,4.08,4.25,1.56,2.08,3.24.13,4.73a15.75,15.75,0,0,1-3.62,1.58,115.73,115.73,0,0,1-18.4,4c-3.49.43-5.08-.24-4-4.68,2.5-10.39,8.32-19.1,13.06-28.37,1.53-3,3.62-5.78,4.09-10.51-4.42,4-6.49,8.37-8.44,12.46-4.06,8.5-8.78,16.77-11.24,25.95-.68,2.51-1.88,1.95-3.18,1.08a27.25,27.25,0,0,1-10.82-14.42,1.58,1.58,0,0,1-.06-1c2.29-5.67,3.19-11.16,1.52-17.47-.46-1.71,3.94-6.57,8.16-7.58.71-.16,1.6.44,2.09-.57.37-.73-2.21-11.6-2.92-12.05-3-1.88-2.15-4.78-1.42-7.15s2.89-1.47,3.91-.13c3.53,4.63,8.92,7.77,10.72,13.84a4,4,0,0,0,4.46,2.53c2.14-.35,2.19-2.07,2.62-3.72,1.7-6.57.44-13.25.83-19.86.07-1.33-.05-2.67,0-4,.1-1.74-.68-4.22,1.55-4.77,2.46-.6,3.25,1.92,4,3.69,1.91,4.77,3.66,9.6,5.41,14.44.63,1.74.28,4.82,2.45,4.67s3.81-2.49,3.6-5.24c1.4-.13,2-1.09,2.32-2.3,2.39.32,5.44-2.23,7.06,1.3a7.34,7.34,0,0,1-1.11,8.35,21.72,21.72,0,0,0-5.3,18.27,3.6,3.6,0,0,1-.83,3.26l-5.85,6.52C187,478.4,188.58,479.62,190.68,479.67Z"/><path class="cls-2" d="M655.27,529.7c1.13-16.24,1.24-32.5.86-48.78a50.18,50.18,0,0,0-1.57-12.81c-2.43-8.35,2-14.54,6.36-21.19,1.13,6.26,2.62,12.48,3.32,18.79,1.73,15.47,10.36,25.41,23.65,32.75a571.25,571.25,0,0,1,49.53,31.21Z"/><path class="cls-4" d="M180.51,500.71a15.75,15.75,0,0,0,3.62-1.58c2-1.49,4.12-3.17-.13-4.73-3.62-1.32-2.44-2.72.11-4.08,2.18-1.17,4.29-2.5,6.43-3.76q.06,55.91.14,111.8c0,6.31.55,12.61.56,18.92,0,4.59,4.23,5.54,6.45,8.21-4.3,3.76-9.74,5.51-14.89,7.26-5.92,2-11.41,5-17.32,6.89l0-24.92c3.73-.24,6.86-2.35,10.34-3.4s4.79-3.32,4.77-7.38C180.4,569.53,180.5,535.12,180.51,500.71Z"/><path class="cls-2" d="M803.37,551.72c-.8,6.72-4.72,12.83-3.94,19.87a99.41,99.41,0,0,1-1.08,16.34c-.63,4.38-2.47,7.82-6.77,9.66-3.91,1.67-8.12,1.23-12.18,1.75-1.46.19-4.31-.23-3.81-3.34,3.11-.24,6.23-.45,9.35-.73,6.13-.54,10-3.9,10-10.1a127.94,127.94,0,0,1,4.44-33.85c.7-2.54.12-5-2.46-5.76-3.21-.92-5.92-5.44-10-1.78,0-2.55-3.76-3.43-2.87-6.39.1-11.77,2.07-23.38,3.36-35,.9-8.23,1.38-16.48,2.15-24.7,1.18-12.65,3.3-25.22,3.77-37.94l10,0c0,28.1.3,56.21-.15,84.3C803,533.28,801.83,542.49,803.37,551.72Z"/><path class="cls-2" d="M165.51,614.72l0,24.92q0,18.51,0,37c0,9.13,0,9.15-7.94,11-4.33,1-8.69,2-13,2.92-.27-2.6,1.4-2.68,3.39-3.07,7.54-1.46,7.6-1.66,7.6-9.47,0-12.16.62-24.35-.14-36.45-1.22-19.28-2-38.59-5.45-57.72-2.2-12.17-3.28-24.55-6.31-36.59-.89-3.55,1.11-4.56,4.07-5.26s5.09.19,5.7,3.12c2.47,11.8,5,23.59,7,35.47,1.31,7.81,4.15,15.32,4.38,23.33C164.85,607.55,165.25,611.13,165.51,614.72Z"/><path class="cls-2" d="M910.31,439.73c-.22,12.79,2.43,25.28,3.8,37.9.75,6.89,1.33,13.8,1.93,20.7.78,9.05,1.48,18.11,2.3,27.15.31,3.3-1,4.54-4.27,4.22-5.39-.54-12.26,2.31-15.81-1.23-3.1-3.09-.88-9.82-.9-14.93-.07-24.6,0-49.2,0-73.81Z"/><path class="cls-4" d="M910.31,439.73h-13c-6.28,1.46-12.66.83-19,1l-57,0a101.5,101.5,0,0,1-18-1l-10,0c-6.39.6-12.63-1.31-19-1-2.1-.34-4.18-.79-6.29-1-4.94-.48-6.31-2.74-4.72-8,4.57.67,9.12,1.73,13.7,1.93,18.86.84,37.72,1.73,56.59,2q33.33.47,66.69-.74c13.4-.48,26.7-1.58,40-3.17,0,7,0,6.94-7.16,8-1.3.19-2.57.62-3.85.94Z"/><path d="M787,543.78c4-3.66,6.75.86,10,1.78,2.58.74,3.16,3.22,2.46,5.76a127.94,127.94,0,0,0-4.44,33.85c0,6.2-3.86,9.56-10,10.1-3.12.28-6.24.49-9.35.73a4.3,4.3,0,0,1-.68-6.56c6-6.26,3.66-13.13,2.21-20-.39-1.86-1.62-3.79.31-5.53,10.38-2,10.88-2.6,10.36-13.27C787.68,548.32,787.24,546.05,787,543.78Z"/><path d="M626.4,590.89c2.3,3.87,5.72,3.78,9.46,2.72s7.4-1.54,10.15-4.47c4,.14,3.58,3.62,4.25,6a44,44,0,0,1,.87,7.21,46.32,46.32,0,0,1-5.22,1.41c-8.36,1.25-16.72,2.49-25.11,3.55-8.86,1.13-17.76,2.5-26.62-.13-3.55-3.38-2-5.84,1.35-8.14,4.35-2.94,9.39-3.88,14.3-5.23,3.8-1.05,7.64-2,11.39-3.18C623.07,590.05,624.72,589.87,626.4,590.89Z"/><path class="cls-4" d="M433,549.61c-1-5.79-.16-11.59,0-17.37.73-20.92,1.62-41.83,2.43-62.74a3.11,3.11,0,0,0-.3-.94l7.85-3.34c2.18,1.58,1.43,3.93,1.44,6q.1,29.22.09,58.43c0,4.66-.32,9.33,0,14s-1.67,6.39-6.06,6.1C436.61,549.6,434.78,549.64,433,549.61Z"/><path class="cls-4" d="M144.49,690.6c4.35-1,8.71-1.9,13-2.92,8-1.88,8-1.9,7.94-11,7-1.11,13.39.8,19.07,4.79,3,2.11,2.24,4.94-1.77,7.33-5.1,3-10.91,3.84-16.61,4.66A159.36,159.36,0,0,1,144,695.5a151.1,151.1,0,0,1-27.64-2.38c-5.51-1-11.23-1.1-16.36-3.73-2.06-1.06-4.48-1.95-4.39-4.84s2.49-3.67,4.59-4.67c1.49-.71,3-1.47,4.46-2.11,5-2.12,6.19-1.5,6.86,3.77.32,2.62,1.56,4.34,4.13,5C125.1,688.92,134.6,691.17,144.49,690.6Z"/><path class="cls-2" d="M95.47,413.73c10.19,3.15,19.76,5.4,22.41,17.37,1.17,5.29,3.72,10.29,5.68,15.4.64,1.67,1,3.07-1,4.2-1.81,1-3,.56-4.38-.75a42.22,42.22,0,0,0-5.56-4.17c-6.87-4.49-12.33-9.52-12.49-18.85C100,422.76,97.29,418.64,95.47,413.73Z"/><path class="cls-2" d="M131.45,393.72q0,15,0,30c-4.54,5.23-.79,9.91,1,14.74-1.17,2.15-1,4.5-.95,6.82.09,2.14-.42,3.63-2.95,3.48-3.33-4.31-3.61-9.88-6-14.57-.07-.14,0-.37-.07-.49-6.64-9.3-1.91-17.37,2.66-25.54a39.91,39.91,0,0,0,4.21-11.58C129.61,395.24,129.6,393.82,131.45,393.72Z"/><path class="cls-3" d="M594.18,607.19c8.86,2.63,17.76,1.26,26.62.13,8.39-1.06,16.75-2.3,25.11-3.55a46.32,46.32,0,0,0,5.22-1.41c1.07,4.9-1,6.37-5.84,6.38-11.11,0-22,2.19-33.06,3.44-5.51.63-11,.76-16.24-1C594.45,610.67,590.83,610.28,594.18,607.19Z"/><path class="cls-2" d="M367.49,28a16.48,16.48,0,0,1,2.14-9.44c.75-1.36,1.72-3.26,3.81-2,1.74,1,2.73,2.88,1.6,4.69-3.61,5.82-1.09,10,3.2,13.94,2.45,2.25,4.72,4.69,7.06,7.06,1.24,1.25,1.42,2.59.19,4-1.06,1.19-2.54,2.37-3.85,1.05-5.09-5.13-11.5-9.22-13.77-16.67A9.77,9.77,0,0,1,367.49,28Z"/><path class="cls-4" d="M128.55,448.74c2.53.15,3-1.34,2.95-3.48-.1-2.32-.22-4.67.95-6.82a21.26,21.26,0,0,1,8.6,9.12c3,5.53-2.27,12.23-8.65,12-.93,0-1.66-.29-1.81-1.25C130.08,455.05,127.6,452.26,128.55,448.74Z"/><path class="cls-4" d="M414.53,582.65l-7.2,0c0-.63,0-1.26,0-1.9.59-.29,1.37-.42,1.73-.88,5.84-7.52,13-8.93,21.46-4.83,0,2.19,0,4.38,0,6.57-2,1-4.09.8-6.18.81,2.19-1.95,2-3.4-1.06-3.63C419.82,578.49,416.67,579.52,414.53,582.65Z"/><path class="cls-4" d="M190.79,439.52c-.34,1.21-.92,2.17-2.32,2.3a4.17,4.17,0,0,0-2.46-2.3c-2.84-1.28-2.76-2.36.1-3.66,4-1.83,4.19-3.37.75-6.11a19.38,19.38,0,0,0-3.41-2,3.69,3.69,0,0,1-2-3.66,3,3,0,0,1,2.66-3.11c2.53-.54,4.41-2.24,6.66-3.24Z"/><path class="cls-3" d="M444.72,338.68c-.34-1.56-1.42-3-.88-4.7l1.59-1.21c2.4,3,2.57,6.71,3.22,10.3s1.68,7.05,2.51,10.57c.23,1,.42,2.17-.69,2.62-1.68.68-1.57-1-2.23-1.86-1.4-1.78.49-5-2.64-5.91-.26-1.61.58-3.44-.94-4.81,0-1,.07-1.95.11-2.93C445.65,340,445.61,339.35,444.72,338.68Z"/><path class="cls-2" d="M442.38,327.6c-5-1.07-4.7-6-6.79-9.22-.12-.19.28-1,.6-1.16a1.69,1.69,0,0,1,2.05.93c1.45,2.5,2.78,5.08,4.16,7.63C442.39,326.39,442.39,327,442.38,327.6Z"/><path class="cls-4" d="M190.71,379.75c0,1.59,0,3.18.08,4.77-2.14,1.75-4.75,1.79-8.31,2.41C185.14,383.44,186.88,380.47,190.71,379.75Z"/><path class="cls-2" d="M738.4,530.52a2.5,2.5,0,0,1,2.54,2C739.43,532.7,738.41,532.25,738.4,530.52Z"/><path class="cls-2" d="M741.25,532.47l1.65,1.13C742.36,533.22,741.8,532.85,741.25,532.47Z"/><path class="cls-2" d="M745.39,533.75a1.31,1.31,0,0,1,1.54.83Z"/><path class="cls-4" d="M353.41,80.74l.45-.4-.4.45Z"/><path class="cls-1" d="M940.32,429.71c-13.29,1.59-26.59,2.69-40,3.17q-33.36,1.19-66.69.74c-18.87-.27-37.73-1.16-56.59-2-4.58-.2-9.13-1.26-13.7-1.93,2.22-3.63,6.21-2.67,9.22-2.81,14.22-.69,28.38-2.42,42.64-2.22,3,0,5.81-1.15,8.86-1.06,2.58.09,2.72-1.68,1.28-3.27-9.22-10.16-8.88-22.24-7.18-34.63,0-.16.05-.33.08-.49.6-2.87-1.43-6.93,1.22-8.45,2.92-1.69,6.94-1.8,10.51-2,9.66-.51,9.91-.45,7.17-9.77-2-6.76-4.39-13.5-10.79-17.68-1.57-1-3.15-1.95-5-.61,0-1.32,0-2.64,0-4-1.28-4.15-3.94-6-8.42-6.15-5.53-.23-10.87,1.42-16.35,1.1-4.07-.23-8.32.22-11.06-4-1-1.56-3.07-1-4.7-.95-8.9.11-23.64-10.88-22.54-23,.58-6.36,5.22-10.34,11.48-8.75a35.06,35.06,0,0,1,12.44,6c7.24,5.42,15.9,7.62,24.18,10.66h0c7.18,8.42,12.1,18.9,23.17,25.45-1.33-6.24-4.3-10.61-6.17-15.38.18-1.61-.71-3.76,2.06-4,2.59,9.7,7.55,18.47,10.94,27.86.51,1.43,1,3.9,2.89,3.51,2.06-.42,1.23-2.91,1-4.32-1-6.33-.55-12.89-2.92-19,1.11-1.2,2.21-2.47,4-1a6.08,6.08,0,0,0-.47,3.3c.76,7,2.19,14,2.69,21.06.26,3.57.21,7.52,1.93,11,1.14-7.43,1.12-14.89,2.43-22.11,1.14-6.23-1.21-10.75-4.59-15.28,0-2.9,1.8-5.35,2.13-8.11,1-8.29,4.6-16.62-.06-24.89,1,0,2.27.17,2.65-.91,2.74-7.89,7.11-15.42,4.77-24.4-.74-2.82-.38-5.92-.46-8.9,0-1,0-2.21,1.15-2.48,5.13-1.14,5.29-5.86,6.65-9.48,2.24-5.95,4.85-11.54,9.7-15.87,5.8-5.17,10.51-3.66,12.64,3.77,2.28,7.93-.87,15-3,22.15-1.77,5.83-4,11.5-6.09,17.24a6.2,6.2,0,0,1-2.13,5.19,41.25,41.25,0,0,0-9.63,17.2,64.48,64.48,0,0,0-1.28,30.51c-5.41,2.41-9.83,5.5-9,12.45.11.93-.47,1.92-.54,2.89-.48,7.5-.92,15-1.37,22.5a32.16,32.16,0,0,0,4.06-10.2c2-9.3,7-17.82,6.89-27.63,3.87-1.56,3.74-5.48,5-8.55,1.64-4,3.05-8.11,4.56-12.17l1.6.58c-.65,2-1.63,3.9-1.88,5.92-.75,5.92-5.73,10.78-4.25,17.22-1.19,1.94-2.88,3.49-3.5,5.89-1.5,5.74-3.44,11.38-5,17.12-1.23,4.7-2.1,9.5-3.13,14.25l1.3.37c1.59-7.54,5.29-14.2,8.69-20.89,2.93-5.76,5.5-11.22,4.59-17.8,1-3.3,2.36-6.54,2.88-9.91,1.34-8.63,5.32-15.7,11.36-21.9,3.27-3.36,8-5.33,9.76-10.14,5.09,1.62,8-2.46,11.12-4.88,4.18-3.2,7.54-7.45,11.4-11.09a37.78,37.78,0,0,1,6.28-4.86c2.68-1.62,5.9-2.2,8.45-.15a7.79,7.79,0,0,1,2.5,8.16c-1.83,7.26-4.23,14.25-9.08,20.24-1.84,2.27-4.26,4.7-2.77,8.41.65,1.62-.36,3.15-1.64,4.43a36.25,36.25,0,0,1-8.58,5.92c-3,1.66-6.25,3.08-8,6.41-5.6,10.44-14.43,16.68-25.85,19.29a9.82,9.82,0,0,0-7.49,6.4c-2.7,6.54-5.69,13-7.73,20,2.66-2.46,5.37-4.86,8-7.38,4.74-4.59,10.19-7.64,16.93-6.84,3.24.38,6.37-2.78,9.54-.08-.65,2.19,1.94,3.08,2,5h0c-2-.33-3.92-1.34-6-1-9.24-5.21-16.18,2-23.23,8.88a2.72,2.72,0,0,0-.56.82c-1,2.25-4.51,3.87-3.5,6.19,1.09,2.52,4.49.62,6.82,1.12l2.9.62c9.61,2,9.61,2,9.61,12.27,0,3.49-.12,7,0,10.47a30.46,30.46,0,0,1-8,22.17c-.63.71-1.58,1.73-1.44,2.41.3,1.5,1.86,1,2.94,1,6,.36,11.89.94,17.83,1,14.25,0,28.35,2,42.52,3A3.4,3.4,0,0,1,940.32,429.71Z"/><path class="cls-4" d="M825.41,323.72c-2.77.29-1.88,2.44-2.06,4a72.19,72.19,0,0,0-17-10.07h0c-3.38-4-7.9-6.88-11.07-11.28a20.26,20.26,0,0,1-3.64-13.58c.78-10.21-3.44-17.92-9.73-25.14a21.75,21.75,0,0,1-4.6-7.61c-.73-2.27-1.52-4.33.57-6.44s4.72-2.33,7.34-1.38a44.13,44.13,0,0,1,13.47,8.26c15.54,13.26,21.87,31.09,25.66,50.32A76.32,76.32,0,0,1,825.41,323.72Z"/><path class="cls-4" d="M865.33,332.74c-1.48-6.44,3.5-11.3,4.25-17.22.25-2,1.23-3.95,1.88-5.92l-1.6-.58c-1.51,4.06-2.92,8.16-4.56,12.17-1.24,3.07-1.11,7-5,8.55h0a64.48,64.48,0,0,1,1.28-30.51,41.25,41.25,0,0,1,9.63-17.2,6.2,6.2,0,0,0,2.13-5.19c6.3-3.57,8.53-10.18,11.79-16,2.59-4.59,5.08-9.17,8.64-13.17a8.35,8.35,0,0,1,9.87-2.47c3.62,1.4,4.7,5.07,4.56,8.69a32.06,32.06,0,0,1-6.15,17.55c-4.05,5.68-6.81,12-9.74,18.27-1.75,4.81-6.49,6.78-9.76,10.14-6,6.2-10,13.27-11.36,21.9-.52,3.37-1.9,6.61-2.88,9.91Zm8.25-30.44a3.5,3.5,0,0,0-1.48,4.24C873.67,305.3,873.74,303.9,873.58,302.3Z"/><path class="cls-4" d="M841.34,330.73c-1.8-1.43-2.9-.16-4,1-3.83-.28-5-3.51-6.46-6.16-3.42-6.19-4.62-13.06-5.49-20-.45-3.6-.88-7.12-2.53-10.5a17.26,17.26,0,0,1-1.42-7.25c-.09-9,1.36-17.86,1.09-26.85-.09-2.84.63-6.17,4.24-7.17s6,1.3,7.88,3.94a26.33,26.33,0,0,1,2.63,5.35,41,41,0,0,1,3.44,15.43c0,6.17,4.16,11.14,4.69,17.13,4.66,8.27,1,16.6.06,24.89-.33,2.76-2.16,5.21-2.13,8.11C842.67,329.39,842,330.06,841.34,330.73Z"/><path class="cls-1" d="M774.36,438.68c6.37-.27,12.61,1.64,19,1-.47,12.72-2.59,25.29-3.77,37.94-.77,8.22-1.25,16.47-2.15,24.7-1.29,11.65-3.26,23.26-3.36,35-4.78-1.33-6.45-5.66-8.87-9.25C773.27,498.34,774.86,468.5,774.36,438.68Z"/><path class="cls-4" d="M821.33,342.76c0,1.32,0,2.64,0,4-2.15,2.94-4,6.21-6.52,8.75-4.51,4.49-10.05,6.45-16.34,4-5.1-2-6.84.79-8.19,5-2.41,7.46-1.78,15-1.08,22.58.22,2.32,1.45,5.77-2.53,6.53-3.62.7-5.85-2-6.93-4.62-5.68-13.9-5.33-27.59,3.4-40.19A18,18,0,0,1,797,340.92c6.1-.31,12.29-1,18.33.79.65,1,1.31,1,2,0Z"/><path class="cls-4" d="M897.32,358.72c-.05-1.91-2.64-2.8-2-5,7,1.61,11.18,6.72,13.23,12.93a86.36,86.36,0,0,1,2.59,44c-.15.81-.57,1.56-.79,2.36-.47,1.72-1.38,3.18-3.19,3.45-2.16.32-3.44-1.45-4.18-3a12.64,12.64,0,0,1-1.5-6.2c.67-7.14-3.1-12.5-6.94-17.64s-4.38-10.75-3.8-16.88c.48-5,3.18-9.95.54-15.06,2.12-.34,4,.67,6,1,2,4.38,5.53,7.86,7.29,12.39C904.29,365.7,903.17,360.78,897.32,358.72Z"/><path class="cls-1" d="M817.35,341.74c-.69,1-1.35,1-2,0C816,340.68,816.7,340.71,817.35,341.74Z"/><path class="cls-1" d="M630.45,309.09c-.62,4.36-1.57,8.71-1.78,13.1a29.25,29.25,0,0,1-2.07,10.45q-68.16,0-136.33.13c-3.72,0-4.92-1.39-4.91-5q.12-51.93,0-103.87c0-3.92,1.33-5.23,5.23-5.22q62.67.15,125.35,0c3.33,0,5,.29,3.56,4.41-5.5,16.35-9.69,33-10.24,50.39-.11,3.71-1.92,7.39-.06,11.12a29.81,29.81,0,0,0,0,12.12c-.1.11-.32.25-.29.31a4.44,4.44,0,0,0,.38.67c3.84,6.63,8.74,8,14.8,4.27,1.26-.78,2.27-2.87,4.27-1.66s2.19,3.17,2.06,5.27C630.36,306.76,630.44,307.92,630.45,309.09Z"/><path class="cls-5" d="M443,465.22l-7.85,3.34c-9.89,1.2-19.77,2.39-29.77,2.45a140.52,140.52,0,0,1-38.81-5.28c-8.41-1.93-6.9-9.31-7.47-14.9-.75-7.38-1-14.94.43-22.35.55-2.79-.92-3.52-3.2-3.84a36.18,36.18,0,0,1-14.44-5.06c-2.48-1.54-2.78-3.29-1.83-5.87,3.91-10.68,3.87-10.7-5.54-16.14l-.44-.23c-7.17-4.3-7.24-4.35-2.56-11.33,8.74-13.05,12.73-28.06,17.63-42.68,2.8-8.35,7.22-15.94,10.53-24a15.88,15.88,0,0,1,7.79-8.1,11.46,11.46,0,0,0,6.08-7.42c9-1.22,17.89,1,26.84.06,4.32,2.55,8.93,3.16,14.45,2.55-4.75-3.9-7.92-8-8.07-13.4-.14-5.23-2.77-10.34-.79-15.66-4.88-5.57,4-7.73,3.05-12.34,6.23-4.87,12.53-9.58,21-9.27,1.77,5.38,4.36,10.43,2.4,16.61-1.42,4.49,1.82,8.9,2.23,13.52.24,2.84.74,5.69-.08,8.37-2.31,7.57-2.75,15.31-2.48,23.12.07,2.05-1.86,3.11-1.95,5-10.23,3-20.59,5.32-31.32,4.43-5.77-.48-11.88-1.25-16.29-5.26-8.43-7.67-15.2-5-21.18,4.12-4.62,7.05-4.88,15.2-4.45,23.11Q358,368.11,359,387.51a73.76,73.76,0,0,0,3.05,16.11c1.93,6.75,10.48,9,19.12,5.76,9.74-3.62,18.16-9.7,27.4-14.22,1,3.66,8.84,7.75,14.76,7.73,6.47,4.4,13.91,2.29,20.91,3.12,0,1.81,0,3.61,0,5.42-3.2,1.09-6.2,0-9.35-.35a64.23,64.23,0,0,1-23.3-6.6c-5.38-2.74-9.17-1.12-13.66,1.93-6.94,4.73-14,9.4-22.74,10.58a7.29,7.29,0,0,0-5.75,3.5c-4.85,8.38-1.57,26,6.16,31.67a49.57,49.57,0,0,0,12.77,6.69,101.56,101.56,0,0,0,54.88,3.94c0,.41.05.82.07,1.23ZM432.59,291.75c.09-1.87-1-2.36-2.2-2.34-2.84,0-5.18,1.09-6.07,4-.3,1,.18,2.36,1.33,2.14A12.63,12.63,0,0,0,432.59,291.75Zm-12.1-10.1a1.78,1.78,0,0,0,1.43-1.64,2.6,2.6,0,0,0-1.69-2.76c-1.11-.4-1.39.6-1.44,1.45A2.81,2.81,0,0,0,420.49,281.65Z"/><path class="cls-5" d="M443.26,462.79a101.56,101.56,0,0,1-54.88-3.94,49.57,49.57,0,0,1-12.77-6.69c-7.73-5.63-11-23.29-6.16-31.67a7.29,7.29,0,0,1,5.75-3.5c8.7-1.18,15.8-5.85,22.74-10.58,4.49-3.05,8.28-4.67,13.66-1.93a64.23,64.23,0,0,0,23.3,6.6c3.15.31,6.15,1.44,9.35.35.8,12.93,1.51,25.86,1.2,38.83-.1,4.14.17,8.31-1.13,12.34Z"/><path class="cls-1" d="M444.24,406c-7-.83-14.44,1.28-20.91-3.11-8-7.46-8-7.44,1.54-12.92,3-1.71,5.84-3.17,5.83-7.65,0-3.21,2.68-4.42,5.74-2.56,4.05,2.46,8,5,12,7.58C450.94,394.44,449.72,400.71,444.24,406Z"/><path class="cls-4" d="M448.45,387.35c-4-2.54-8-5.12-12-7.58-3.06-1.86-5.74-.65-5.74,2.56,0,4.48-2.84,5.94-5.83,7.65-9.55,5.48-9.56,5.46-1.54,12.92-5.92,0-13.72-4.08-14.76-7.74,4.26-3,8.71-5.8,12.74-9.11,2.93-2.41,6.7-4.92,4.13-9.84,11.59-2.22,17.43-9.34,17.34-21.13l1.63-.28c-.08,7.28,2.46,14.15,3.41,21.28C448.32,379.86,448.27,383.59,448.45,387.35Z"/><path class="cls-3" d="M567.38,345.74c5.83,2.81,7.3,9.36,3.57,14.89-6.21,9.22-15.53,13.89-25.59,17.09a99.1,99.1,0,0,1-48.54,3.36c-6.07-1.11-12.18-1.78-17.75-4.89l21.78,2.88c10.79,1.44,21.42.44,32.09-1.51a83.71,83.71,0,0,0,24.22-8.63,45.29,45.29,0,0,0,9.55-7.09c5.39-5,4.07-10.6.71-16.15Z"/><path class="cls-3" d="M568.41,422.72c3.11-9.18,1.58-13.69-6.73-19.23a75.82,75.82,0,0,0-41.77-12.78c-11.27-.15-22.62-1-33.74,1.9-.87.23-1.86,0-4.23,0,6.85-3.6,13-3.89,19-4.78A92.62,92.62,0,0,1,539.35,390c12,3.32,23.74,8,31.38,18.82,3.87,5.49,2.63,11.22-2.36,13.89Z"/><path class="cls-3" d="M452.79,408.72c.31,4.07,1.4,8.34,1,12.74-.1,1.21.31,2.54-1.12,2.73s-1.21-1.32-1.31-2.22c-.62-6-1.25-11.89-1.75-17.85a2,2,0,0,1,2.18-2.19c1.53.08,1.16,1.2.87,2.19C452.27,405.59,453.93,406.93,452.79,408.72Z"/><path class="cls-1" d="M444.41,354.8l-1.63.28a2.13,2.13,0,0,1-.45-2.38c2.83-2.48-.62-6.57,2.32-9,1.53,1.37.69,3.2,1,4.81C445,350.55,446.27,353,444.41,354.8Z"/><path class="cls-3" d="M568.37,422.68c-.26,1.94-1.48,2.58-3.71,2.52a4.09,4.09,0,0,1,3.75-2.48Z"/><path class="cls-3" d="M567.42,345.69c-1.2-.18-2.62.49-3.71-1.17,1.75-.77,2.71.22,3.67,1.22Z"/><path class="cls-4" d="M443.26,462.79l1.06-.19-1,1.41C443.31,463.61,443.28,463.2,443.26,462.79Z"/><path class="cls-5" d="M624.65,232.71c0-5,4.57-9.18,10.87-10.34,3.55-.66,8.84,2.82,10,8,1.15,4.92,3.84,8.74,6.36,12.78,1.49,2.38,1.9,4.37-1.35,5.33-2.83.84-3.57,5.65-7,4.34-2.49-.94-4.39-3.44-6.57-5.22a7.87,7.87,0,0,0-2.4-1.71c-2.25-.65-4.78.15-6.44-2.73C626.14,239.72,625.39,236.09,624.65,232.71Z"/><path class="cls-2" d="M609.3,297.72a4.44,4.44,0,0,1-.38-.67c0-.06.19-.2.29-.31A2.18,2.18,0,0,1,609.3,297.72Z"/><path d="M639.13,167.43c-.12,1,.06,2.14-1,2.16s-1.59-1-1.7-2.07a1.57,1.57,0,0,1,1.19-1.88C639,165.46,638.92,166.73,639.13,167.43Z"/><path class="cls-2" d="M190.82,282c-.09-2-.28-4-.28-6q0-99.19,0-198.4c0-6.86.5-7.42,7.45-6.74,15,1.47,30.09,2.24,45.16,3.07,23.85,1.31,47.65,3.34,71.54,3.94,6.81.17,7.2.92,6,7.81a20.26,20.26,0,0,0-.19,3.49q0,93.7,0,187.4c-5.11-.55-10,1-14.6,2.6-14.12,4.76-29.1,4-43.38,7.49-7.55,1.84-15.16,3.47-22.68,5.45a6.48,6.48,0,0,1-5.56-.84C220.92,283.2,206.13,281.33,190.82,282Zm61.85-20.14c3.24-2.33,3.24-2.33,3.87-3.94,2.66-6.76-.56-14.16-7.87-19.1-8.53-5.76-18-9.28-27.86-11.6a58.74,58.74,0,0,0-24.47-.63,101.46,101.46,0,0,0,13.73,2.12c12.91,1.23,25.39,4.44,35.64,12.43C254.64,248.09,257.9,249.94,252.67,261.86Zm-57.43-42.49c14.53,1.53,30.86-.78,43.35-6.93,5.59-2.75,11.11-6,15.39-10.78s4.75-13.18.85-16.85c-.76-.71-1.61-1.39-2.6-.67s-.15,1.43.28,2.1c3.74,5.89,3.6,8.27-1.3,13.21-10.4,10.5-23.86,14.33-37.76,17.33C207.52,218.07,201.26,216.94,195.24,219.37Zm47.85,42.08c2.18,3.37,4.87,3.65,7.93.74C248.26,262.93,245.75,262.14,243.09,261.45Zm4.68-79.23c-.3-.15-.57-.39-.83-.39s-.51.27-.77.43c.27.14.53.39.79.39S247.48,182.39,247.77,182.22Z"/><path class="cls-2" d="M321.32,530.7c4.25,2.1,5.35,5.55,3,9.6-1.22,2.12-3.1,3.93-3.19,6.61-2-.65-3.4.33-5.05,1.28-15.49,8.92-31.88,8.75-48.62,4.54a5.35,5.35,0,0,1-1.3-.67c-.08,0,0-.3-.1-1,3.7.27,7.38.3,11,.84,12.88,2,25-.36,36.73-5.76,4.79-2.2,7.56-5.12,6.7-10.72C320.25,533.89,319.91,532.07,321.32,530.7Z"/><path class="cls-2" d="M319.88,586.48c5-7.28,4.52-10.26-3-14.89-13.07-8-27.52-8.9-42.31-7.48-3.41.33-6.78.94-10.25,1.06,4-3.08,8.84-3.29,13.37-3.87,14.83-1.9,29.18-.43,41.8,8.53,3.67,2.61,6.65,6,5.95,11.21C325,584.18,323.42,586,319.88,586.48Z"/><path class="cls-2" d="M305.43,352.74c4.13,2.37,3.87,7.91-.65,11.69-8.16,6.83-17.86,10.16-28.23,11.1A73.69,73.69,0,0,1,247,372.15c2.55-1.47,2.51-1.18,9.56-.21,16.18,2.21,31.62.48,45.6-9,4-2.73,3.22-6.51,3.26-10.26Z"/><path class="cls-2" d="M246.54,382.75c17.19-6.86,34.12-6.67,50.65,1.05a27.74,27.74,0,0,1,8.88,7.1,8.16,8.16,0,0,1,2.32,5.85c-.06,1.34.08,3.16-1.47,3.31-2.2.21-1.37-1.89-1.33-2.95.16-4.23-2.9-6.39-5.74-8.12-13-7.9-27.3-9.57-42.15-7.9C254,381.52,250.26,382.19,246.54,382.75Z"/><path class="cls-4" d="M190.68,479.67c-2.1-.05-3.71-1.27-5.92-2.45l5.85-6.52Q190.64,475.19,190.68,479.67Z"/><path class="cls-2" d="M302.67,403.73l-1.16.53-.44-1a7.09,7.09,0,0,1,1.26-.33C302.4,402.94,302.52,403.39,302.67,403.73Z"/><path class="cls-2" d="M300.89,350.55l-.52-.49a6.6,6.6,0,0,1,.89-.14c.11,0,.23.18.35.28Z"/><path class="cls-2" d="M305.46,352.7l-1.28-1.18.57-.35c.22.52.45,1,.68,1.57Z"/><path class="cls-1" d="M425.44,376.21c2.57,4.92-1.2,7.43-4.13,9.84-4,3.31-8.48,6.1-12.74,9.11-9.24,4.52-17.66,10.6-27.4,14.22-8.64,3.21-17.19,1-19.12-5.76A73.76,73.76,0,0,1,359,387.51q-1-19.39-2.08-38.78c-.43-7.91-.17-16.06,4.45-23.11,6-9.15,12.75-11.79,21.18-4.12,4.41,4,10.52,4.78,16.29,5.26,10.73.89,21.09-1.47,31.32-4.43,1.31,2.59,3.88,4.1,5.57,6.34,1.89,2.51,4.34,4.65,2.22,8.75-1.09,2.1.2,5.44.45,8.22.22,2.35-.11,3.54-3.15,3.19s-6.21,1.15-8.91,2.71c-1.25.72-3.57,1.7-2.22,4.18.53,1.14.05,1.79-1.05,2.12-2.67.29-4.3,3-7.24,2.89-5.49-.17-11-.09-16.49,0-2.76,0-3.91-1.25-3.88-3.95.06-4.33,0-8.66,0-13,0-4.06-1.74-7.4-4.48-10.53a151.55,151.55,0,0,0-.62,15.75c0,1.9.63,4.16-2,5-3.4.23-2.18,2.5-1.95,4.37.16,1.26,1.16,2.82-.06,3.75-1.4,1.06-2.95-.19-4.06-1a97.43,97.43,0,0,1-7.68-6.25c-1.88-1.66-3.65-3.9-6.43-2.68-3,1.31-4.19,4.2-4.45,7.27-.75,8.71,4.82,14.78,16,17.64,4.89,1.25,10.63-2.35,13.72-8.62,2.21,2.38,4.5,2.47,7.5,1.1,5.81-2.65,11.76-5.09,18.36-5C422.94,367.62,424.31,371.85,425.44,376.21Z"/><path class="cls-1" d="M400.36,303.84c-8.95.89-17.89-1.28-26.84-.06-5-14-8.13-28.44-2.71-42.61,5.62-14.68,17.43-22.48,35.1-20.12,5.65.76,11.12,1.76,15.79,5.35.82.63,1.63,1.12,1.72,2.25a29.69,29.69,0,0,0-13.79,5.43c-5.26,3.95-9.94,8.65-12.31,15.32-1.56,4.42-.58,8.69-.84,13C396.05,289.83,397.67,297,400.36,303.84Z"/><path class="cls-3" d="M400.36,303.84c-2.69-6.89-4.31-14-3.88-21.43.26-4.32-.72-8.59.84-13,2.37-6.67,7.05-11.37,12.31-15.32a29.69,29.69,0,0,1,13.79-5.43c5.19-.69,6.91,1.15,6.62,7.08-8.51-.32-14.81,4.39-21,9.26,1,4.61-7.93,6.77-3.05,12.34-2,5.32.65,10.43.79,15.66.15,5.43,3.32,9.5,8.07,13.4C409.29,307,404.68,306.39,400.36,303.84Z"/><path d="M425.44,376.21c-1.13-4.36-2.5-8.59-6.16-11.6,2.38-1.63,4-3.67,3.79-6.76,1.1-.34,1.58-1,1.05-2.13,4.07-4.65,9.91-3.71,15.11-4.85,1.76-.39,1.86,1.6,3.1,1.83a2.13,2.13,0,0,0,.45,2.38C442.87,366.87,437,374,425.44,376.21Z"/><path class="cls-2" d="M411,230c4.68-.32,8.32-1.84,9.64-6.61s-1-8.08-4.16-11c-7.68-7-17-11-26.89-13.57-19.93-5.15-39.81-3.71-59.64.65a1.7,1.7,0,0,1-2.1-.84c6.22-2.71,12.72-3.7,19.13-4.89a97.08,97.08,0,0,1,45.74,2.18c10.54,3.13,20.58,7.78,28,16.56a12,12,0,0,1,2.2,12.17c-1.5,4.45-5.47,6-9.67,6.93C412.41,231.76,411.56,231.51,411,230Z"/><path class="cls-2" d="M419.66,152.54c5,3.38,5.33,10.31.56,15.9a37.64,37.64,0,0,1-9.16,7.59,79.35,79.35,0,0,1-38.56,11.76c-14.33.63-28.41-.52-42.89-5.63a10.51,10.51,0,0,1,5.75,0c1.6.38,3.27.45,4.9.72,21.5,3.5,42.61,2.83,62.81-6.27a61.86,61.86,0,0,0,11.9-7.14c6.2-4.73,7-8.87,4.27-16.51Z"/><path class="cls-2" d="M334.45,361.29c-.57-4.32,1.74-7.84,2.87-11.63.64-2.16,1.2-4.4,2-6.55.52-1.39-.69-4.1,1.59-4,2.65.1,1.71,3,1.41,4.39C340.94,349.91,339,356.16,334.45,361.29Z"/><path class="cls-2" d="M350.59,454.09c-2.4-6.51-1.46-13.31-2-20,0-.4.76-1.15,1.26-1.24,1-.19,1.31.47,1.28,1.51C351,441,352.31,447.51,350.59,454.09Z"/><path class="cls-2" d="M358.42,315.43c-1.1-.3-.94-1.15-.8-1.95.4-2.34,7.12-9.07,9.59-9.51a2.34,2.34,0,0,1,1.75.45,1.09,1.09,0,0,1-.07,1.72c-4.13,2-6.74,5.61-9.55,9C359.17,315.35,358.74,315.34,358.42,315.43Z"/><path class="cls-2" d="M410.43,150.76c2.91-3.29,6.31-2.63,9.23,1.78l-.42.4c-2.84-1.14-5.55-2.78-8.82-2.19Z"/><path class="cls-1" d="M444.72,338.68c.89.67.93,1.36,0,2.07C443.38,340.1,443.33,339.41,444.72,338.68Z"/><path class="cls-2" d="M410.42,150.75l-1.07.75-.24-.39,1.32-.35Z"/><path class="cls-1" d="M407.37,580.73c0,.64,0,1.27,0,1.9a8.94,8.94,0,0,0,.73,8.45,17.2,17.2,0,0,1,2.28,10.54c-.11,1.12.07,2.87-1.3,2.86a19.54,19.54,0,0,1-11.59-3.71c-2.71-2.08-2.26-7.51-.57-9.16,5-4.9,1-6.58-2-9a167.07,167.07,0,0,1,3.25-27.93l4.88,1.11a8.62,8.62,0,0,1,.72,4.75c-1.66,1.11-1.19,1.8.46,2.23Z"/><path class="cls-4" d="M403,555.77l-4.88-1.11c-.88-5.33.53-10.43,1.86-15.67C401.43,544.51,403.2,549.94,403,555.77Z"/><path class="cls-4" d="M404.16,562.75c-1.65-.43-2.12-1.12-.46-2.23C404.79,561.07,404.74,561.86,404.16,562.75Z"/><path d="M414.53,582.65c2.14-3.13,5.29-4.16,8.83-3.88,3,.23,3.25,1.68,1.06,3.63C421.1,581.6,417.86,584,414.53,582.65Z"/><path class="cls-2" d="M860.32,329.74c.15,9.81-4.93,18.33-6.89,27.63a32.16,32.16,0,0,1-4.06,10.2c.45-7.5.89-15,1.37-22.5.07-1,.65-2,.54-2.89-.79-6.95,3.63-10,9-12.45Z"/><path class="cls-2" d="M841.34,330.73c.66-.67,1.33-1.34,2-2,3.38,4.53,5.73,9.05,4.59,15.28-1.31,7.22-1.29,14.68-2.43,22.11-1.72-3.49-1.67-7.44-1.93-11-.5-7.09-1.93-14-2.69-21.06A6.08,6.08,0,0,1,841.34,330.73Z"/><path class="cls-2" d="M865.33,332.74l3-1.06c.91,6.58-1.66,12-4.59,17.8-3.4,6.69-7.1,13.35-8.69,20.89l-1.3-.37c1-4.75,1.9-9.55,3.13-14.25,1.51-5.74,3.45-11.38,5-17.12C862.45,336.23,864.14,334.68,865.33,332.74Z"/><path class="cls-2" d="M806.35,317.7a72.19,72.19,0,0,1,17,10.07c1.87,4.77,4.84,9.14,6.17,15.38C818.45,336.6,813.53,326.12,806.35,317.7Z"/><path class="cls-1" d="M873.58,302.3c.16,1.6.09,3-1.48,4.24A3.5,3.5,0,0,1,873.58,302.3Z"/><path class="cls-1" d="M897.32,358.72c5.85,2.06,7,7,7.3,12.38-1.76-4.53-5.28-8-7.29-12.39Z"/><path class="cls-3" d="M432.59,291.75a12.63,12.63,0,0,1-6.94,3.84c-1.15.22-1.63-1.13-1.33-2.14.89-2.95,3.23-4,6.07-4C431.6,289.39,432.68,289.88,432.59,291.75Z"/><path d="M420.49,281.65a2.81,2.81,0,0,1-1.7-2.95c0-.85.33-1.85,1.44-1.45a2.6,2.6,0,0,1,1.69,2.76A1.78,1.78,0,0,1,420.49,281.65Z"/><path class="cls-3" d="M252.67,261.86c5.23-11.92,2-13.77-7-20.72-10.25-8-22.73-11.2-35.64-12.43a101.46,101.46,0,0,1-13.73-2.12,58.74,58.74,0,0,1,24.47.63c9.81,2.32,19.33,5.84,27.86,11.6,7.31,4.94,10.53,12.34,7.87,19.1C255.91,259.53,255.91,259.53,252.67,261.86Z"/><path class="cls-3" d="M195.24,219.37c6-2.43,12.28-1.3,18.21-2.59,13.9-3,27.36-6.83,37.76-17.33,4.9-4.94,5-7.32,1.3-13.21-.43-.67-1.24-1.4-.28-2.1s1.84,0,2.6.67c3.9,3.67,3.57,11.93-.85,16.85s-9.8,8-15.39,10.78C226.1,218.59,209.77,220.9,195.24,219.37Z"/><path class="cls-3" d="M243.09,261.45c2.66.69,5.17,1.48,7.93.74C248,265.1,245.27,264.82,243.09,261.45Z"/><path class="cls-3" d="M247.77,182.22c-.29.17-.55.42-.81.43s-.52-.25-.79-.39c.26-.16.51-.42.77-.43S247.47,182.07,247.77,182.22Z"/><path d="M393.42,368.51c-3.09,6.27-8.83,9.87-13.72,8.62-11.17-2.86-16.74-8.93-16-17.64.26-3.07,1.48-6,4.45-7.27,2.78-1.22,4.55,1,6.43,2.68a97.43,97.43,0,0,0,7.68,6.25c1.11.79,2.66,2,4.06,1,1.22-.93.22-2.49.06-3.75-.23-1.87-1.45-4.14,1.95-4.37C390.69,358.61,393.16,363.17,393.42,368.51Z"/><path class="cls-4" d="M393.42,368.51c-.26-5.34-2.73-9.9-5.08-14.5,2.67-.86,2-3.12,2-5a151.55,151.55,0,0,1,.62-15.75c2.74,3.13,4.49,6.47,4.48,10.53,0,4.33,0,8.66,0,13,0,2.7,1.12,4,3.88,3.95,5.5-.07,11-.15,16.49,0,2.94.09,4.57-2.6,7.24-2.89.23,3.1-1.41,5.14-3.79,6.77-6.6-.09-12.55,2.35-18.36,5C397.92,371,395.63,370.89,393.42,368.51Z"/></g></g></svg>