<svg width="55" height="55" viewBox="0 0 55 55" fill="none" xmlns="http://www.w3.org/2000/svg">
<path d="M42.1739 19.8669C44.1935 16.7523 45.668 13.3165 46.5339 9.70689C46.5502 9.54919 46.5288 9.38988 46.4714 9.24209C46.414 9.0943 46.3224 8.96227 46.2039 8.85689C45.0039 7.91689 43.7639 7.00689 42.4839 6.16689C42.317 6.11683 42.1412 6.10343 41.9686 6.12759C41.796 6.15176 41.6307 6.21292 41.4839 6.30689C40.4839 6.98689 39.5739 7.74689 38.6239 8.46689C38.2161 8.84736 37.7135 9.11116 37.1687 9.23067C36.6239 9.35017 36.057 9.32097 35.5274 9.14614C34.9978 8.9713 34.525 8.65726 34.1584 8.23691C33.7918 7.81656 33.545 7.30537 33.4439 6.75689C33.1139 5.63689 32.7839 4.52689 32.4439 3.40689C32.3139 2.90689 32.1139 2.57689 31.5239 2.58689C29.9339 2.58689 28.3539 2.58689 26.7639 2.58689C26.5039 2.58689 26.1239 3.00689 26.0139 3.30689C25.6239 4.46689 25.3439 5.66689 25.0139 6.82689C24.8989 7.35733 24.6461 7.8481 24.2812 8.24983C23.9162 8.65155 23.4518 8.95006 22.9348 9.1153C22.4178 9.28053 21.8664 9.30668 21.3361 9.1911C20.8058 9.07551 20.3153 8.82228 19.9139 8.45689C19.0039 7.79689 18.0039 7.10689 17.1339 6.35689C17.0445 6.25145 16.9342 6.16571 16.8099 6.10506C16.6857 6.04442 16.5502 6.0102 16.4121 6.00456C16.2739 5.99892 16.1361 6.02199 16.0073 6.07231C15.8786 6.12262 15.7616 6.19909 15.6639 6.29689C14.4839 7.18689 13.3039 8.05689 12.1039 8.90689C11.9224 9.01698 11.7914 9.19392 11.739 9.39964C11.6866 9.60536 11.7171 9.82342 11.8239 10.0069C12.2939 11.2369 12.7539 12.4769 13.1439 13.7369C13.3289 14.1973 13.3934 14.6973 13.3315 15.1897C13.2695 15.682 13.0832 16.1504 12.7899 16.5507C12.4967 16.951 12.1063 17.27 11.6556 17.4775C11.2049 17.6851 10.7087 17.7743 10.2139 17.7369C8.89391 17.7369 7.57391 17.6869 6.21391 17.7369C6.01173 17.7462 5.8149 17.8048 5.64058 17.9076C5.46627 18.0105 5.31978 18.1544 5.21391 18.3269C4.67391 19.7769 4.21391 21.2669 3.78391 22.7669C3.77166 22.9431 3.80051 23.1197 3.86819 23.2828C3.93587 23.446 4.04053 23.5911 4.17391 23.7069C5.17391 24.4669 6.23391 25.1469 7.26391 25.8669C7.72918 26.1223 8.11836 26.4966 8.39174 26.9515C8.66512 27.4064 8.81291 27.9258 8.82003 28.4565C8.82715 28.9872 8.69333 29.5103 8.43225 29.9724C8.17117 30.4345 7.79216 30.8191 7.33391 31.0869C6.33391 31.8169 5.27391 32.5269 4.23391 33.2369C4.12927 33.2806 4.03432 33.3446 3.9545 33.4251C3.87469 33.5056 3.81159 33.6012 3.76883 33.7062C3.72608 33.8112 3.70452 33.9237 3.70539 34.037C3.70626 34.1504 3.72955 34.2625 3.77391 34.3669C4.23391 35.7269 4.65391 37.0969 5.07391 38.4769C5.12941 38.7481 5.2898 38.9865 5.52015 39.14C5.75051 39.2936 6.03219 39.35 6.30391 39.2969C7.65257 39.2119 9.00524 39.2119 10.3539 39.2969C11.0438 39.3561 11.7011 39.6169 12.2439 40.0469C12.7135 40.4518 13.0414 40.9962 13.18 41.6006C13.3185 42.205 13.2603 42.8379 13.0139 43.4069C12.5439 44.7969 12.0139 46.1669 11.5539 47.5969C13.5539 47.1369 20.1939 43.1969 21.1939 41.9369C19.2059 40.7281 17.5139 39.0895 16.2421 37.1412C14.9703 35.193 14.1509 32.9846 13.8442 30.6783C13.5376 28.372 13.7513 26.0262 14.4698 23.8133C15.1883 21.6004 16.3932 19.5765 17.9962 17.8902C19.5993 16.204 21.5596 14.8981 23.7333 14.0685C25.907 13.239 28.2389 12.9068 30.5578 13.0964C32.8767 13.286 35.1237 13.9925 37.1338 15.1641C39.1439 16.3357 40.8661 17.9426 42.1739 19.8669ZM23.9139 48.0969C24.3339 48.9969 24.7539 49.7669 25.0439 50.5769C25.4139 51.5769 25.6439 52.5769 25.9939 53.6369C26.0939 53.9369 26.4039 54.3569 26.6339 54.3669C28.2439 54.4469 29.8639 54.3669 31.4839 54.4469C32.1439 54.4469 32.3539 54.0969 32.4839 53.5269C32.7839 52.3669 33.1439 51.2269 33.4839 50.0969C33.5991 49.5955 33.8412 49.1322 34.1871 48.7514C34.533 48.3706 34.971 48.0851 35.4591 47.9224C35.9471 47.7597 36.4688 47.7253 36.974 47.8224C37.4792 47.9195 37.9509 48.1449 38.3439 48.4769C39.3439 49.2169 40.3439 49.9869 41.3439 50.7769C41.4914 50.9495 41.7005 51.0575 41.9265 51.0781C42.1526 51.0986 42.3777 51.03 42.5539 50.8869C43.7839 49.9669 45.0239 49.0769 46.2739 48.1869C46.4816 48.0605 46.6308 47.857 46.6889 47.6208C46.747 47.3847 46.7092 47.1352 46.5839 46.9269C46.1039 45.6969 45.6639 44.4569 45.2739 43.1969C45.112 42.7485 45.0624 42.2674 45.1293 41.7954C45.1963 41.3234 45.3777 40.875 45.6579 40.4894C45.938 40.1037 46.3083 39.7925 46.7364 39.5828C47.1645 39.3732 47.6375 39.2716 48.1139 39.2869C49.4339 39.2869 50.7539 39.2869 52.1139 39.2869C52.3708 39.3342 52.636 39.279 52.8528 39.1332C53.0696 38.9875 53.2207 38.7627 53.2739 38.5069C53.7139 37.0769 54.2039 35.6669 54.5939 34.2169C54.6102 34.0422 54.5852 33.8661 54.5209 33.7028C54.4566 33.5395 54.3549 33.3936 54.2239 33.2769C53.2239 32.4869 52.1239 31.7969 51.0639 31.0469C50.6093 30.7832 50.2319 30.4047 49.9696 29.9492C49.7073 29.4938 49.5692 28.9775 49.5692 28.4519C49.5692 27.9263 49.7073 27.41 49.9696 26.9545C50.2319 26.4991 50.6093 26.1206 51.0639 25.8569C52.0906 25.1302 53.1306 24.4202 54.1839 23.7269C54.2813 23.6867 54.3695 23.6273 54.4433 23.5521C54.5171 23.4769 54.5749 23.3876 54.6132 23.2895C54.6515 23.1914 54.6696 23.0865 54.6662 22.9812C54.6629 22.8759 54.6383 22.7724 54.5939 22.6769C54.1139 21.2669 53.7239 19.8169 53.2139 18.4069C53.1405 18.2292 53.0262 18.0713 52.8802 17.9462C52.7342 17.8211 52.5607 17.7322 52.3739 17.6869C52.1748 17.7163 51.9837 17.7854 51.8119 17.8902C51.6401 17.995 51.4911 18.1333 51.3739 18.2969C49.5039 21.1369 47.7439 24.0469 45.8039 26.8369C45.0739 27.8108 44.6524 28.9811 44.5939 30.1969C44.6092 30.41 44.6092 30.6238 44.5939 30.8369C44.0596 34.1941 42.4391 37.2835 39.9808 39.6316C37.5225 41.9797 34.3621 43.4569 30.9839 43.8369C30.3474 43.8317 29.718 43.9719 29.1439 44.2469C27.3239 45.4869 25.5939 46.8569 23.9839 48.0669M0.00390625 48.7569C0.0735189 49.8647 0.520241 50.9153 1.26979 51.734C2.01933 52.5526 3.02653 53.0901 4.12391 53.2569C5.63547 53.4205 7.16203 53.3835 8.66391 53.1469C12.2078 52.4161 15.5937 51.0617 18.6639 49.1469C27.0991 44.134 34.6087 37.7069 40.8639 30.1469C45.0346 25.474 48.492 20.2105 51.1239 14.5269C52.5084 11.7486 53.2404 8.69094 53.2639 5.58689C53.2818 4.84752 53.1491 4.11224 52.8737 3.42582C52.5984 2.73939 52.1862 2.11619 51.6623 1.59416C51.1384 1.07213 50.5138 0.662195 49.8264 0.389314C49.139 0.116433 48.4032 -0.0136828 47.6639 0.00689012C43.8239 -0.11311 40.4439 1.35689 37.5539 2.65689C39.3566 2.32284 41.1758 2.08583 43.0039 1.94689C46.4739 1.81689 48.6039 4.00689 48.6039 7.52689C48.4688 10.855 47.547 14.1038 45.9139 17.0069C42.8984 22.8346 39.044 28.1883 34.4739 32.8969C29.3872 38.4818 23.4997 43.2807 17.0039 47.1369C13.8325 49.1382 10.299 50.4973 6.60391 51.1369C4.09391 51.4669 1.75391 51.1369 0.0139062 48.7869" fill="white"/>
<path d="M42.1728 19.8659C40.8701 17.9253 39.1474 16.3027 37.1325 15.1182C35.1176 13.9337 32.8619 13.2178 30.5327 13.0234C28.2035 12.829 25.8604 13.1612 23.677 13.9953C21.4936 14.8294 19.5259 16.1441 17.9196 17.8419C16.3132 19.5398 15.1095 21.5773 14.3975 23.8035C13.6855 26.0297 13.4835 28.3876 13.8065 30.7025C14.1295 33.0173 14.9692 35.2299 16.2634 37.1762C17.5575 39.1225 19.273 40.7526 21.2828 41.9459C20.2828 43.2059 13.6228 47.1459 11.6428 47.6059C12.1428 46.1759 12.6428 44.8059 13.1028 43.4159C13.3492 42.8469 13.4073 42.2141 13.2688 41.6097C13.1303 41.0053 12.8024 40.4609 12.3328 40.0559C11.79 39.626 11.1327 39.3652 10.4428 39.3059C9.11073 39.223 7.77481 39.223 6.44277 39.3059C6.17134 39.3563 5.89095 39.2989 5.66124 39.1457C5.43153 38.9926 5.27064 38.7559 5.21277 38.4859C4.80277 37.1059 4.37277 35.7359 3.91277 34.3759C3.8228 34.1637 3.82071 33.9245 3.90696 33.7108C3.9932 33.497 4.16073 33.3263 4.37277 33.2359C5.37277 32.5359 6.45277 31.8259 7.47277 31.0959C7.93343 30.8289 8.3147 30.444 8.57743 29.9808C8.84016 29.5176 8.97488 28.9929 8.96775 28.4605C8.96063 27.928 8.81191 27.4071 8.53688 26.9511C8.26185 26.4951 7.87041 26.1206 7.40277 25.8659C6.40277 25.1559 5.31277 24.4759 4.31277 23.7159C4.17868 23.6012 4.07415 23.4559 4.00801 23.2923C3.94187 23.1287 3.91607 22.9516 3.93277 22.7759C4.34277 21.2759 4.81277 19.7759 5.35277 18.3259C5.46233 18.1568 5.6097 18.0155 5.78324 17.9131C5.95679 17.8107 6.15176 17.7501 6.35277 17.7359C7.67277 17.6759 8.99277 17.7359 10.3528 17.7359C10.8476 17.7734 11.3437 17.6841 11.7945 17.4766C12.2452 17.2691 12.6356 16.9501 12.9288 16.5498C13.222 16.1495 13.4084 15.681 13.4703 15.1887C13.5323 14.6964 13.4677 14.1964 13.2828 13.7359C12.8928 12.4759 12.4328 11.2359 11.9628 10.0059C11.856 9.82247 11.8255 9.60441 11.8779 9.39869C11.9302 9.19297 12.0613 9.01603 12.2428 8.90594C13.4428 8.05594 14.6228 7.18594 15.8028 6.29594C15.9005 6.19814 16.0174 6.12167 16.1462 6.07135C16.275 6.02104 16.4128 5.99797 16.5509 6.00361C16.6891 6.00925 16.8245 6.04347 16.9488 6.10411C17.073 6.16475 17.1833 6.2505 17.2728 6.35594C18.0028 7.10594 19.0028 7.79594 19.8828 8.50594C20.2838 8.87647 20.7759 9.13412 21.3089 9.25266C21.8419 9.37119 22.3968 9.34638 22.9171 9.18074C23.4373 9.0151 23.9045 8.71455 24.2708 8.3097C24.6372 7.90484 24.8898 7.41013 25.0028 6.87594C25.3728 5.71594 25.6528 4.51594 26.0028 3.35594C26.1128 3.05594 26.4928 2.65594 26.7528 2.64594C28.3428 2.56594 29.9228 2.64594 31.5128 2.58594C32.1028 2.58594 32.3028 2.90594 32.4328 3.39594C32.7328 4.52594 33.0628 5.63594 33.4328 6.75594C33.5339 7.30442 33.7807 7.81561 34.1473 8.23596C34.5138 8.65631 34.9867 8.97035 35.5163 9.14519C36.0459 9.32002 36.6128 9.34922 37.1576 9.22971C37.7024 9.11021 38.205 8.84641 38.6128 8.46594C39.5628 7.74594 40.4828 6.98594 41.4728 6.30594C41.6195 6.21196 41.7849 6.1508 41.9575 6.12664C42.1301 6.10248 42.3058 6.11588 42.4728 6.16594C43.7628 7.00594 45.0028 7.91594 46.2128 8.85594C46.3294 8.96231 46.4192 9.09478 46.4748 9.24251C46.5305 9.39025 46.5503 9.54906 46.5328 9.70594C45.6693 13.3164 44.1947 16.7526 42.1728 19.8659Z" fill="#3C3C3B"/>
<path d="M23.912 48.0968C25.522 46.8868 27.252 45.5168 29.072 44.2768C29.6461 44.0018 30.2755 43.8616 30.912 43.8668C34.2902 43.4869 37.4507 42.0096 39.9089 39.6615C42.3672 37.3135 43.9877 34.224 44.522 30.8668C44.5369 30.6537 44.5369 30.4399 44.522 30.2268C44.5805 29.011 45.002 27.8407 45.732 26.8668C47.672 24.0768 49.432 21.1668 51.302 18.3268C51.4193 18.1632 51.5682 18.0249 51.74 17.9201C51.9118 17.8154 52.103 17.7462 52.302 17.7168C52.4889 17.7621 52.6624 17.851 52.8083 17.9761C52.9543 18.1012 53.0687 18.2591 53.142 18.4368C53.652 19.8468 54.042 21.2968 54.522 22.7068C54.5664 22.8023 54.591 22.9058 54.5944 23.0111C54.5977 23.1164 54.5796 23.2213 54.5413 23.3194C54.503 23.4175 54.4452 23.5068 54.3714 23.582C54.2977 23.6572 54.2094 23.7167 54.112 23.7568C53.062 24.4468 52.022 25.1568 50.992 25.8768C50.5351 26.1398 50.1555 26.5187 49.8916 26.9751C49.6277 27.4316 49.4887 27.9495 49.4887 28.4768C49.4887 29.0041 49.6277 29.522 49.8916 29.9785C50.1555 30.4349 50.5351 30.8138 50.992 31.0768C52.042 31.8168 53.122 32.5168 54.142 33.2968C54.2799 33.4212 54.3855 33.5772 54.4499 33.7513C54.5144 33.9255 54.5357 34.1126 54.512 34.2968C54.122 35.7468 53.632 37.1568 53.192 38.5868C53.1389 38.8426 52.9877 39.0674 52.771 39.2131C52.5542 39.3589 52.289 39.4141 52.032 39.3668C50.712 39.3068 49.392 39.3668 48.032 39.3668C47.5556 39.3515 47.0827 39.4531 46.6545 39.6628C46.2264 39.8724 45.8561 40.1836 45.576 40.5693C45.2959 40.955 45.1144 41.4034 45.0475 41.8753C44.9805 42.3473 45.0302 42.8284 45.192 43.2768C45.582 44.5368 46.022 45.7768 46.502 47.0068C46.6273 47.2152 46.6651 47.4647 46.607 47.7008C46.5489 47.9369 46.3997 48.1404 46.192 48.2668C44.942 49.1568 43.702 50.0468 42.472 50.9568C42.2982 51.1036 42.0732 51.1755 41.8464 51.1568C41.6196 51.138 41.4094 51.0302 41.262 50.8568C40.262 50.0668 39.262 49.2968 38.262 48.5568C37.8691 48.2248 37.3973 47.9994 36.8921 47.9023C36.3869 47.8052 35.8653 47.8397 35.3772 48.0023C34.8892 48.165 34.4512 48.4505 34.1053 48.8313C33.7594 49.2121 33.5172 49.6754 33.402 50.1768C33.042 51.3068 32.672 52.4468 32.402 53.5968C32.252 54.1768 32.042 54.5368 31.402 54.5268C29.782 54.5268 28.172 54.5268 26.552 54.4468C26.322 54.4468 26.012 54.0068 25.912 53.7168C25.562 52.7168 25.332 51.6568 24.962 50.6568C24.672 49.8368 24.252 49.0768 23.832 48.1768" fill="#3C3C3B"/>
<mask id="mask0_2435_3" style="mask-type:luminance" maskUnits="userSpaceOnUse" x="0" y="0" width="54" height="54">
<path d="M37.5556 2.66769C39.3574 2.32602 41.1769 2.08564 43.0056 1.94769C46.4756 1.81769 48.6056 4.00769 48.6056 7.52769C48.4705 10.8558 47.5487 14.1046 45.9156 17.0077C42.9001 22.8354 39.0457 28.1891 34.4756 32.8977C29.3889 38.4826 23.5014 43.2815 17.0056 47.1377C13.8343 49.139 10.3007 50.4981 6.60562 51.1377C4.09562 51.4677 1.75563 51.1377 0.015625 48.7877C0.0852377 49.8955 0.53196 50.9461 1.28151 51.7648C2.03105 52.5834 3.03825 53.1209 4.13562 53.2877C5.65053 53.4512 7.18039 53.4142 8.68563 53.1777C12.2305 52.4502 15.6169 51.0956 18.6856 49.1777C27.1235 44.1686 34.6337 37.7409 40.8856 30.1777C45.0518 25.4943 48.5024 20.2206 51.1256 14.5277C52.5102 11.7494 53.2421 8.69173 53.2656 5.58769C53.2821 4.8487 53.1484 4.11406 52.8725 3.42829C52.5967 2.74252 52.1845 2.11989 51.6609 1.59816C51.1373 1.07642 50.5132 0.666431 49.8264 0.393041C49.1397 0.119652 48.4046 -0.0114474 47.6656 0.00768971H47.2556C43.5856 0.00768971 40.3456 1.41769 37.5556 2.66769Z" fill="white"/>
</mask>
<g mask="url(#mask0_2435_3)">
<path d="M53.3739 0.0078125H0.00390625V53.3978H53.3739V0.0078125Z" fill="#3C3C3B"/>
</g>
<mask id="mask1_2435_3" style="mask-type:luminance" maskUnits="userSpaceOnUse" x="0" y="37" width="7" height="14">
<path d="M0.0736788 43.2978C-0.836321 51.2978 6.98368 50.2978 6.98368 50.2978C2.63368 49.6978 2.16368 46.3678 2.16368 46.3678C1.53368 43.0078 3.23368 38.7778 3.23368 38.7778L2.46368 37.0078C0.793679 38.7178 0.0736788 43.2978 0.0736788 43.2978Z" fill="white"/>
</mask>
<g mask="url(#mask1_2435_3)">
<path d="M6.98406 37.0469H-0.835938V51.3269H6.98406V37.0469Z" fill="#3C3C3B"/>
</g>
</svg>
